<?xml version="1.0" encoding="UTF-8"?>
<!DOCTYPE svg PUBLIC "-//W3C//DTD SVG 1.1//EN" "http://www.w3.org/Graphics/SVG/1.1/DTD/svg11.dtd">
<svg xmlns="http://www.w3.org/2000/svg" version="1.1" width="141px" height="134px" style="shape-rendering:geometricPrecision; text-rendering:geometricPrecision; image-rendering:optimizeQuality; fill-rule:evenodd; clip-rule:evenodd" xmlns:xlink="http://www.w3.org/1999/xlink">
<g><path style="opacity:0.963" fill="#d54a4a" d="M 82.5,6.5 C 82.5,6.83333 82.5,7.16667 82.5,7.5C 80.8333,7.5 79.1667,7.5 77.5,7.5C 71.5,7.5 65.5,7.5 59.5,7.5C 59.5,7.16667 59.5,6.83333 59.5,6.5C 67.1538,5.20228 74.8204,5.20228 82.5,6.5 Z"/></g>
<g><path style="opacity:1" fill="#e41f29" d="M 58.5,7.5 C 58.8333,7.5 59.1667,7.5 59.5,7.5C 65.5,7.5 71.5,7.5 77.5,7.5C 76.8333,8.16667 76.1667,8.83333 75.5,9.5C 70.8333,9.5 66.1667,9.5 61.5,9.5C 59.8212,9.71481 58.8212,9.04814 58.5,7.5 Z"/></g>
<g><path style="opacity:0.337" fill="#df7b77" d="M 82.5,7.5 C 82.5,7.16667 82.5,6.83333 82.5,6.5C 84.5529,6.40206 86.2196,7.06873 87.5,8.5C 86.5,8.5 85.5,8.5 84.5,8.5C 83.8333,8.16667 83.1667,7.83333 82.5,7.5 Z"/></g>
<g><path style="opacity:1" fill="#db232e" d="M 58.5,7.5 C 58.8212,9.04814 59.8212,9.71481 61.5,9.5C 61.5,9.83333 61.5,10.1667 61.5,10.5C 58.4816,10.6646 55.4816,10.498 52.5,10C 54.4068,8.87803 56.4068,8.04469 58.5,7.5 Z"/></g>
<g><path style="opacity:1" fill="#df1f23" d="M 77.5,7.5 C 79.1667,7.5 80.8333,7.5 82.5,7.5C 83.1667,7.83333 83.8333,8.16667 84.5,8.5C 81.7131,9.47667 78.7131,9.81 75.5,9.5C 76.1667,8.83333 76.8333,8.16667 77.5,7.5 Z"/></g>
<g><path style="opacity:0.975" fill="#d63838" d="M 84.5,8.5 C 85.5,8.5 86.5,8.5 87.5,8.5C 88.1667,8.5 88.8333,8.5 89.5,8.5C 89.5,8.83333 89.5,9.16667 89.5,9.5C 88.375,10.3478 88.375,11.3478 89.5,12.5C 88.8333,12.5 88.1667,12.5 87.5,12.5C 87.3893,11.8826 87.056,11.3826 86.5,11C 83.854,10.5026 81.1873,10.3359 78.5,10.5C 72.8333,10.5 67.1667,10.5 61.5,10.5C 61.5,10.1667 61.5,9.83333 61.5,9.5C 66.1667,9.5 70.8333,9.5 75.5,9.5C 78.7131,9.81 81.7131,9.47667 84.5,8.5 Z"/></g>
<g><path style="opacity:1" fill="#df6560" d="M 59.5,6.5 C 59.5,6.83333 59.5,7.16667 59.5,7.5C 59.1667,7.5 58.8333,7.5 58.5,7.5C 56.4068,8.04469 54.4068,8.87803 52.5,10C 55.4816,10.498 58.4816,10.6646 61.5,10.5C 57.2667,11.7974 52.9334,13.1307 48.5,14.5C 48.5,14.1667 48.5,13.8333 48.5,13.5C 49.2625,12.7321 50.2625,12.2321 51.5,12C 51.1667,11.6667 50.8333,11.3333 50.5,11C 48.5753,11.1349 46.5753,11.3016 44.5,11.5C 49.136,9.02947 54.136,7.3628 59.5,6.5 Z"/></g>
<g><path style="opacity:0.663" fill="#e47f7a" d="M 78.5,10.5 C 81.1873,10.3359 83.854,10.5026 86.5,11C 87.056,11.3826 87.3893,11.8826 87.5,12.5C 84.3112,12.1417 81.3112,11.475 78.5,10.5 Z"/></g>
<g><path style="opacity:0.4" fill="#dc6765" d="M 89.5,8.5 C 95.2557,9.87611 100.256,12.5428 104.5,16.5C 101.994,15.2504 99.3274,14.5838 96.5,14.5C 96.5858,13.5041 96.2524,12.6708 95.5,12C 93.2774,11.4338 91.2774,10.6005 89.5,9.5C 89.5,9.16667 89.5,8.83333 89.5,8.5 Z"/></g>
<g><path style="opacity:0.984" fill="#da2229" d="M 89.5,9.5 C 91.2774,10.6005 93.2774,11.4338 95.5,12C 96.2524,12.6708 96.5858,13.5041 96.5,14.5C 95.8333,14.5 95.1667,14.5 94.5,14.5C 93.3646,12.7868 91.698,12.1201 89.5,12.5C 88.375,11.3478 88.375,10.3478 89.5,9.5 Z"/></g>
<g><path style="opacity:1" fill="#d8212a" d="M 48.5,13.5 C 46.8008,13.6602 45.1341,13.4935 43.5,13C 44.056,12.6174 44.3893,12.1174 44.5,11.5C 46.5753,11.3016 48.5753,11.1349 50.5,11C 50.8333,11.3333 51.1667,11.6667 51.5,12C 50.2625,12.2321 49.2625,12.7321 48.5,13.5 Z"/></g>
<g><path style="opacity:1" fill="#dc6b68" d="M 87.5,12.5 C 88.1667,12.5 88.8333,12.5 89.5,12.5C 91.698,12.1201 93.3646,12.7868 94.5,14.5C 94.5,14.8333 94.5,15.1667 94.5,15.5C 91.9823,14.7362 89.649,13.7362 87.5,12.5 Z"/></g>
<g><path style="opacity:1" fill="#de5a53" d="M 44.5,11.5 C 44.3893,12.1174 44.056,12.6174 43.5,13C 45.1341,13.4935 46.8008,13.6602 48.5,13.5C 48.5,13.8333 48.5,14.1667 48.5,14.5C 47.4863,15.6737 46.153,16.3404 44.5,16.5C 43.4479,14.744 41.7812,14.0773 39.5,14.5C 40.8993,13.1103 42.5659,12.1103 44.5,11.5 Z"/></g>
<g><path style="opacity:0.984" fill="#dc514d" d="M 39.5,14.5 C 41.7812,14.0773 43.4479,14.744 44.5,16.5C 43.3285,17.3446 41.9952,18.0113 40.5,18.5C 40.4226,17.2502 39.756,16.4169 38.5,16C 39.056,15.6174 39.3893,15.1174 39.5,14.5 Z"/></g>
<g><path style="opacity:0.961" fill="#dd524d" d="M 39.5,14.5 C 39.3893,15.1174 39.056,15.6174 38.5,16C 39.756,16.4169 40.4226,17.2502 40.5,18.5C 39.0552,20.0627 37.3885,21.396 35.5,22.5C 34.7375,21.7321 33.7375,21.2321 32.5,21C 33.305,19.8873 33.9717,18.7206 34.5,17.5C 35.8993,16.1103 37.5659,15.1103 39.5,14.5 Z"/></g>
<g><path style="opacity:0.965" fill="#d83133" d="M 94.5,15.5 C 94.5,15.1667 94.5,14.8333 94.5,14.5C 95.1667,14.5 95.8333,14.5 96.5,14.5C 99.3274,14.5838 101.994,15.2504 104.5,16.5C 104.833,16.5 105.167,16.5 105.5,16.5C 105.731,19.0632 107.065,20.7298 109.5,21.5C 108.791,22.404 107.791,22.7373 106.5,22.5C 104.973,22.573 103.973,21.9063 103.5,20.5C 101.547,17.0219 98.5468,15.3552 94.5,15.5 Z"/></g>
<g><path style="opacity:0.467" fill="#df7673" d="M 94.5,15.5 C 98.5468,15.3552 101.547,17.0219 103.5,20.5C 100.583,18.6426 97.5825,16.9759 94.5,15.5 Z"/></g>
<g><path style="opacity:0.919" fill="#4b4849" d="M 72.5,21.5 C 71.0695,21.5792 69.7362,21.2458 68.5,20.5C 67.6143,21.325 67.281,22.325 67.5,23.5C 66.1411,22.9935 65.1411,21.9935 64.5,20.5C 63.5832,21.1272 62.5832,21.4606 61.5,21.5C 63.438,17.8308 66.438,16.6641 70.5,18C 71.305,19.1127 71.9717,20.2794 72.5,21.5 Z"/></g>
<g><path style="opacity:0.202" fill="#777576" d="M 54.5,19.5 C 53.1779,19.33 52.0113,19.6634 51,20.5C 50.5045,22.4727 50.3379,24.4727 50.5,26.5C 50.1667,26.5 49.8333,26.5 49.5,26.5C 49.3367,24.1432 49.5034,21.8098 50,19.5C 51.3333,18.8333 52.6667,18.1667 54,17.5C 54.4643,18.0944 54.631,18.7611 54.5,19.5 Z"/></g>
<g><path style="opacity:0.984" fill="#e0605b" d="M 105.5,16.5 C 107.716,17.9661 109.716,19.6327 111.5,21.5C 110.833,21.5 110.167,21.5 109.5,21.5C 107.065,20.7298 105.731,19.0632 105.5,16.5 Z"/></g>
<g><path style="opacity:0.973" fill="#de615c" d="M 34.5,17.5 C 33.9717,18.7206 33.305,19.8873 32.5,21C 33.7375,21.2321 34.7375,21.7321 35.5,22.5C 33.6957,24.4953 31.6957,26.1619 29.5,27.5C 29.5,27.1667 29.5,26.8333 29.5,26.5C 28.3398,24.7973 29.0065,24.1307 31.5,24.5C 31.7148,22.8212 31.0481,21.8212 29.5,21.5C 31.1722,20.1304 32.8388,18.7971 34.5,17.5 Z"/></g>
<g><path style="opacity:0.998" fill="#393637" d="M 54.5,19.5 C 55.439,19.6262 56.439,19.9595 57.5,20.5C 57.2942,22.5492 56.4609,22.8825 55,21.5C 54.5357,22.0944 54.369,22.7611 54.5,23.5C 52.8235,24.1834 52.1568,25.5168 52.5,27.5C 51.8333,27.5 51.1667,27.5 50.5,27.5C 50.5,27.1667 50.5,26.8333 50.5,26.5C 50.3379,24.4727 50.5045,22.4727 51,20.5C 52.0113,19.6634 53.1779,19.33 54.5,19.5 Z"/></g>
<g><path style="opacity:0.98" fill="#686566" d="M 57.5,20.5 C 58.4778,20.811 59.1445,21.4777 59.5,22.5C 58.3698,23.6223 57.7031,24.9557 57.5,26.5C 57.1667,26.5 56.8333,26.5 56.5,26.5C 56.7148,24.8212 56.0481,23.8212 54.5,23.5C 54.369,22.7611 54.5357,22.0944 55,21.5C 56.4609,22.8825 57.2942,22.5492 57.5,20.5 Z"/></g>
<g><path style="opacity:0.83" fill="#221e1f" d="M 67.5,23.5 C 67.9382,23.4346 68.2716,23.6012 68.5,24C 67.5842,24.2784 66.9175,24.7784 66.5,25.5C 65.2591,27.9312 64.0924,27.9312 63,25.5C 62.6174,26.056 62.1174,26.3893 61.5,26.5C 61.5,24.8333 61.5,23.1667 61.5,21.5C 62.5832,21.4606 63.5832,21.1272 64.5,20.5C 65.1411,21.9935 66.1411,22.9935 67.5,23.5 Z"/></g>
<g><path style="opacity:1" fill="#514f4f" d="M 93.5,25.5 C 93.719,24.325 93.3857,23.325 92.5,22.5C 91.1401,23.1799 89.8068,23.8466 88.5,24.5C 89.3298,22.1764 90.6631,20.1764 92.5,18.5C 96.0385,20.4043 96.3719,22.7376 93.5,25.5 Z"/></g>
<g><path style="opacity:1" fill="#d94a50" d="M 109.5,21.5 C 110.167,21.5 110.833,21.5 111.5,21.5C 112.5,21.8333 113.167,22.5 113.5,23.5C 111.821,23.2852 110.821,23.9519 110.5,25.5C 109.833,25.5 109.167,25.5 108.5,25.5C 107.833,24.5 107.167,23.5 106.5,22.5C 107.791,22.7373 108.791,22.404 109.5,21.5 Z"/></g>
<g><path style="opacity:0.957" fill="#d93639" d="M 29.5,21.5 C 31.0481,21.8212 31.7148,22.8212 31.5,24.5C 29.0065,24.1307 28.3398,24.7973 29.5,26.5C 27.9519,26.1788 27.2852,25.1788 27.5,23.5C 27.8333,22.5 28.5,21.8333 29.5,21.5 Z"/></g>
<g><path style="opacity:1" fill="#232021" d="M 54.5,23.5 C 56.0481,23.8212 56.7148,24.8212 56.5,26.5C 55.0413,26.4326 53.7079,26.7659 52.5,27.5C 52.1568,25.5168 52.8235,24.1834 54.5,23.5 Z"/></g>
<g><path style="opacity:0.992" fill="#242122" d="M 72.5,21.5 C 71.9694,24.7794 69.9694,26.1128 66.5,25.5C 66.9175,24.7784 67.5842,24.2784 68.5,24C 68.2716,23.6012 67.9382,23.4346 67.5,23.5C 67.281,22.325 67.6143,21.325 68.5,20.5C 69.7362,21.2458 71.0695,21.5792 72.5,21.5 Z"/></g>
<g><path style="opacity:0.996" fill="#1f1d1e" d="M 93.5,25.5 C 91.7408,26.2614 90.0741,25.9281 88.5,24.5C 89.8068,23.8466 91.1401,23.1799 92.5,22.5C 93.3857,23.325 93.719,24.325 93.5,25.5 Z"/></g>
<g><path style="opacity:1" fill="#db4241" d="M 113.5,23.5 C 114.906,23.9731 115.573,24.9731 115.5,26.5C 113.523,27.8715 111.856,27.5382 110.5,25.5C 110.821,23.9519 111.821,23.2852 113.5,23.5 Z"/></g>
<g><path style="opacity:0.984" fill="#e06865" d="M 27.5,23.5 C 27.2852,25.1788 27.9519,26.1788 29.5,26.5C 29.5,26.8333 29.5,27.1667 29.5,27.5C 28.396,29.3885 27.0627,31.0552 25.5,32.5C 26.038,30.8828 26.3713,29.2161 26.5,27.5C 25.5,27.5 24.5,27.5 23.5,27.5C 24.8333,26.1667 26.1667,24.8333 27.5,23.5 Z"/></g>
<g><path style="opacity:0.906" fill="#363032" d="M 42.5,26.5 C 44.5,26.5 46.5,26.5 48.5,26.5C 48.5,26.8333 48.5,27.1667 48.5,27.5C 46.6777,28.281 46.0111,29.4477 46.5,31C 45.552,31.4828 44.552,31.6495 43.5,31.5C 43.9528,30.5416 44.6195,29.7083 45.5,29C 42.6493,28.68 40.6493,29.8467 39.5,32.5C 38.1667,31.5 38.1667,30.5 39.5,29.5C 40.8333,28.8333 41.8333,27.8333 42.5,26.5 Z"/></g>
<g><path style="opacity:0.01" fill="#dcdcdc" d="M 61.5,21.5 C 61.5,23.1667 61.5,24.8333 61.5,26.5C 61.5,26.8333 61.5,27.1667 61.5,27.5C 61.1667,27.5 60.8333,27.5 60.5,27.5C 59.209,27.7373 58.209,27.404 57.5,26.5C 58.5,26.5 59.5,26.5 60.5,26.5C 60.2155,24.5853 60.5489,22.9187 61.5,21.5 Z"/></g>
<g><path style="opacity:0.867" fill="#858485" d="M 72.5,21.5 C 73.9118,23.2303 73.5785,24.7303 71.5,26C 73.9856,26.7051 73.9856,27.5384 71.5,28.5C 69.9275,27.3127 68.2608,26.3127 66.5,25.5C 69.9694,26.1128 71.9694,24.7794 72.5,21.5 Z"/></g>
<g><path style="opacity:1" fill="#4b494a" d="M 88.5,24.5 C 90.0741,25.9281 91.7408,26.2614 93.5,25.5C 93.3713,27.2161 93.038,28.8828 92.5,30.5C 91.8333,30.5 91.5,30.8333 91.5,31.5C 91.1667,31.5 90.8333,31.5 90.5,31.5C 90.2503,29.326 89.2503,27.6594 87.5,26.5C 87.3284,25.5084 87.6618,24.8417 88.5,24.5 Z"/></g>
<g><path style="opacity:0.349" fill="#afacac" d="M 48.5,26.5 C 48.8333,26.5 49.1667,26.5 49.5,26.5C 49.5,27.1667 49.8333,27.5 50.5,27.5C 50.5,28.1667 50.5,28.8333 50.5,29.5C 49.5,29.1667 48.8333,28.5 48.5,27.5C 48.5,27.1667 48.5,26.8333 48.5,26.5 Z"/></g>
<g><path style="opacity:0.949" fill="#3e3d3d" d="M 66.5,25.5 C 68.2608,26.3127 69.9275,27.3127 71.5,28.5C 70.5263,30.0853 69.0263,31.0853 67,31.5C 64.7951,30.5882 62.9618,29.2549 61.5,27.5C 61.5,27.1667 61.5,26.8333 61.5,26.5C 62.1174,26.3893 62.6174,26.056 63,25.5C 64.0924,27.9312 65.2591,27.9312 66.5,25.5 Z"/></g>
<g><path style="opacity:0.898" fill="#de6762" d="M 108.5,25.5 C 109.167,25.5 109.833,25.5 110.5,25.5C 111.856,27.5382 113.523,27.8715 115.5,26.5C 117.5,26.5 118.5,27.5 118.5,29.5C 114.424,26.5843 113.424,27.5843 115.5,32.5C 113.5,29.8333 111.167,27.5 108.5,25.5 Z"/></g>
<g><path style="opacity:0.216" fill="#aeaba9" d="M 42.5,26.5 C 41.8333,27.8333 40.8333,28.8333 39.5,29.5C 39.5,27.5 40.5,26.5 42.5,26.5 Z"/></g>
<g><path style="opacity:0.998" fill="#343233" d="M 56.5,26.5 C 56.8693,28.4412 57.536,30.2745 58.5,32C 57.2068,32.49 55.8734,32.6567 54.5,32.5C 54.5,31.8333 54.1667,31.5 53.5,31.5C 53.5,30.8333 53.1667,30.5 52.5,30.5C 52.5,29.5 52.5,28.5 52.5,27.5C 53.7079,26.7659 55.0413,26.4326 56.5,26.5 Z"/></g>
<g><path style="opacity:0.971" fill="#4f4e4f" d="M 56.5,26.5 C 56.8333,26.5 57.1667,26.5 57.5,26.5C 58.209,27.404 59.209,27.7373 60.5,27.5C 61.5652,32.7658 59.5652,34.4325 54.5,32.5C 55.8734,32.6567 57.2068,32.49 58.5,32C 57.536,30.2745 56.8693,28.4412 56.5,26.5 Z"/></g>
<g><path style="opacity:0.965" fill="#1f211e" d="M 43.5,31.5 C 43.5,31.8333 43.5,32.1667 43.5,32.5C 42.1667,32.5 40.8333,32.5 39.5,32.5C 40.6493,29.8467 42.6493,28.68 45.5,29C 44.6195,29.7083 43.9528,30.5416 43.5,31.5 Z"/></g>
<g><path style="opacity:0.998" fill="#2c292b" d="M 87.5,26.5 C 89.2503,27.6594 90.2503,29.326 90.5,31.5C 90.5,32.1667 90.1667,32.5 89.5,32.5C 88.8106,31.2264 87.9772,31.2264 87,32.5C 86.5357,31.9056 86.369,31.2389 86.5,30.5C 86.2322,28.901 86.5655,27.5676 87.5,26.5 Z"/></g>
<g><path style="opacity:0.98" fill="#2c2c2e" d="M 101.5,29.5 C 101.833,29.5 102.167,29.5 102.5,29.5C 102.5,30.1667 102.5,30.8333 102.5,31.5C 99.685,30.6675 99.0184,31.6675 100.5,34.5C 99.8333,34.5 99.1667,34.5 98.5,34.5C 98.1667,33.8333 97.8333,33.1667 97.5,32.5C 97.2668,29.0464 98.6001,28.0464 101.5,29.5 Z"/></g>
<g><path style="opacity:0.999" fill="#2a2729" d="M 48.5,27.5 C 48.8333,28.5 49.5,29.1667 50.5,29.5C 50.5,30.1667 50.8333,30.5 51.5,30.5C 51.5,31.8333 52.1667,32.5 53.5,32.5C 53.573,34.0269 52.9063,35.0269 51.5,35.5C 49.8212,35.2852 48.8212,35.9519 48.5,37.5C 46.8008,37.6602 45.1341,37.4935 43.5,37C 44.0659,36.0053 44.7326,35.172 45.5,34.5C 46.2971,35.4782 46.9638,35.1449 47.5,33.5C 47.0302,32.537 46.3635,32.537 45.5,33.5C 44.5084,33.6716 43.8417,33.3382 43.5,32.5C 43.5,32.1667 43.5,31.8333 43.5,31.5C 44.552,31.6495 45.552,31.4828 46.5,31C 46.0111,29.4477 46.6777,28.281 48.5,27.5 Z"/></g>
<g><path style="opacity:0.063" fill="#969c9b" d="M 101.5,29.5 C 98.6001,28.0464 97.2668,29.0464 97.5,32.5C 96.2921,31.7659 94.9587,31.4326 93.5,31.5C 93.1667,31.5 92.8333,31.5 92.5,31.5C 92.5,31.1667 92.5,30.8333 92.5,30.5C 93.8333,30.5 95.1667,30.5 96.5,30.5C 97.3309,25.5795 98.9975,25.2462 101.5,29.5 Z"/></g>
<g><path style="opacity:0.059" fill="#d6d6d6" d="M 51.5,30.5 C 51.8333,30.5 52.1667,30.5 52.5,30.5C 53.1667,30.5 53.5,30.8333 53.5,31.5C 54.1667,31.5 54.5,31.8333 54.5,32.5C 54.1667,32.5 53.8333,32.5 53.5,32.5C 52.1667,32.5 51.5,31.8333 51.5,30.5 Z"/></g>
<g><path style="opacity:0.895" fill="#575657" d="M 86.5,30.5 C 86.369,31.2389 86.5357,31.9056 87,32.5C 87.9772,31.2264 88.8106,31.2264 89.5,32.5C 89.5,33.1667 89.5,33.8333 89.5,34.5C 87.5165,34.6168 85.8498,33.9501 84.5,32.5C 84.8555,31.4777 85.5222,30.811 86.5,30.5 Z"/></g>
<g><path style="opacity:0.021" fill="#e4e1e3" d="M 90.5,31.5 C 90.8333,31.5 91.1667,31.5 91.5,31.5C 91.8333,31.5 92.1667,31.5 92.5,31.5C 91.5615,33.7564 91.5615,36.0897 92.5,38.5C 91.5,37.1667 90.5,35.8333 89.5,34.5C 89.5,33.8333 89.5,33.1667 89.5,32.5C 90.1667,32.5 90.5,32.1667 90.5,31.5 Z"/></g>
<g><path style="opacity:0.976" fill="#dd4946" d="M 23.5,27.5 C 24.5,27.5 25.5,27.5 26.5,27.5C 26.3713,29.2161 26.038,30.8828 25.5,32.5C 24.4884,33.8717 23.4884,35.205 22.5,36.5C 21.8897,34.1497 21.5563,34.483 21.5,37.5C 19.8212,37.7148 18.8212,37.0481 18.5,35.5C 19.6693,32.4887 21.336,29.822 23.5,27.5 Z"/></g>
<g><path style="opacity:0.945" fill="#d5252a" d="M 118.5,29.5 C 120.167,33.1667 119.167,34.1667 115.5,32.5C 113.424,27.5843 114.424,26.5843 118.5,29.5 Z"/></g>
<g><path style="opacity:0.02" fill="#c6c3c6" d="M 45.5,34.5 C 45.5,34.1667 45.5,33.8333 45.5,33.5C 46.3635,32.537 47.0302,32.537 47.5,33.5C 46.9638,35.1449 46.2971,35.4782 45.5,34.5 Z"/></g>
<g><path style="opacity:0.784" fill="#222021" d="M 93.5,31.5 C 94.9587,31.4326 96.2921,31.7659 97.5,32.5C 97.8333,33.1667 98.1667,33.8333 98.5,34.5C 98.1667,34.5 97.8333,34.5 97.5,34.5C 97.1667,34.5 96.8333,34.5 96.5,34.5C 95.5,34.5 94.5,34.5 93.5,34.5C 93.5,33.5 93.5,32.5 93.5,31.5 Z"/></g>
<g><path style="opacity:0.949" fill="#222020" d="M 102.5,31.5 C 103.451,32.9187 103.784,34.5853 103.5,36.5C 102.29,36.0679 101.29,35.4013 100.5,34.5C 99.0184,31.6675 99.685,30.6675 102.5,31.5 Z"/></g>
<g><path style="opacity:0.216" fill="#cdcdcb" d="M 102.5,29.5 C 104.026,30.4919 104.693,31.9919 104.5,34C 104.486,35.3847 104.152,36.5514 103.5,37.5C 103.5,37.1667 103.5,36.8333 103.5,36.5C 103.784,34.5853 103.451,32.9187 102.5,31.5C 102.5,30.8333 102.5,30.1667 102.5,29.5 Z"/></g>
<g><path style="opacity:0.996" fill="#4c4b4b" d="M 39.5,32.5 C 40.8333,32.5 42.1667,32.5 43.5,32.5C 43.8417,33.3382 44.5084,33.6716 45.5,33.5C 45.5,33.8333 45.5,34.1667 45.5,34.5C 44.7326,35.172 44.0659,36.0053 43.5,37C 45.1341,37.4935 46.8008,37.6602 48.5,37.5C 47.2196,38.9313 45.5529,39.5979 43.5,39.5C 43.5,38.8333 43.1667,38.5 42.5,38.5C 40.752,37.2106 40.4186,35.7106 41.5,34C 40.5842,33.7216 39.9175,33.2216 39.5,32.5 Z"/></g>
<g><path style="opacity:0.961" fill="#757473" d="M 61.5,34.5 C 67.5,33.1667 73.5,33.1667 79.5,34.5C 74.8215,34.3342 70.1548,34.5008 65.5,35C 69.0252,35.1787 72.3586,35.6787 75.5,36.5C 70.7858,36.3531 66.1191,36.6864 61.5,37.5C 62.0906,36.8485 62.7573,36.1818 63.5,35.5C 63.0431,34.7025 62.3764,34.3691 61.5,34.5 Z"/></g>
<g><path style="opacity:0.655" fill="#232321" d="M 79.5,34.5 C 79.1788,36.0481 78.1788,36.7148 76.5,36.5C 76.1667,36.5 75.8333,36.5 75.5,36.5C 72.3586,35.6787 69.0252,35.1787 65.5,35C 70.1548,34.5008 74.8215,34.3342 79.5,34.5 Z"/></g>
<g><path style="opacity:0.961" fill="#3b393a" d="M 92.5,31.5 C 92.8333,31.5 93.1667,31.5 93.5,31.5C 93.5,32.5 93.5,33.5 93.5,34.5C 94.5,34.5 95.5,34.5 96.5,34.5C 96.8333,37.1667 97.1667,37.1667 97.5,34.5C 97.8333,34.5 98.1667,34.5 98.5,34.5C 98.5,35.5 98.5,36.5 98.5,37.5C 97.209,37.2627 96.209,37.596 95.5,38.5C 95.1667,38.5 94.8333,38.5 94.5,38.5C 93.8333,38.5 93.1667,38.5 92.5,38.5C 91.5615,36.0897 91.5615,33.7564 92.5,31.5 Z"/></g>
<g><path style="opacity:1" fill="#433f41" d="M 38.5,37.5 C 36.0421,38.6231 33.8754,38.6231 32,37.5C 31.5357,38.0944 31.369,38.7611 31.5,39.5C 31.1583,40.3382 30.4916,40.6716 29.5,40.5C 30.4629,38.7016 29.7962,37.3683 27.5,36.5C 28.0117,33.4679 29.6784,32.3013 32.5,33C 34.6838,34.3634 36.6838,35.8634 38.5,37.5 Z"/></g>
<g><path style="opacity:0.247" fill="#b2b0af" d="M 51.5,35.5 C 50.7095,36.4013 49.7095,37.0679 48.5,37.5C 48.8212,35.9519 49.8212,35.2852 51.5,35.5 Z"/></g>
<g><path style="opacity:0.861" fill="#3c3a39" d="M 61.5,34.5 C 62.3764,34.3691 63.0431,34.7025 63.5,35.5C 62.7573,36.1818 62.0906,36.8485 61.5,37.5C 61.1667,37.5 60.8333,37.5 60.5,37.5C 59.209,37.7373 58.209,37.404 57.5,36.5C 58.287,34.8958 59.6203,34.2291 61.5,34.5 Z"/></g>
<g><path style="opacity:1" fill="#1f1d1e" d="M 98.5,34.5 C 99.1667,34.5 99.8333,34.5 100.5,34.5C 101.29,35.4013 102.29,36.0679 103.5,36.5C 103.5,36.8333 103.5,37.1667 103.5,37.5C 102.504,37.5858 101.671,37.2524 101,36.5C 99.3629,38.6057 97.5295,39.2724 95.5,38.5C 96.209,37.596 97.209,37.2627 98.5,37.5C 98.5,36.5 98.5,35.5 98.5,34.5 Z"/></g>
<g><path style="opacity:0.988" fill="#de6662" d="M 118.5,29.5 C 120.522,31.5313 122.189,33.8646 123.5,36.5C 122.504,36.5858 121.671,36.2524 121,35.5C 120.82,37.4884 120.986,39.4884 121.5,41.5C 119.265,38.7089 117.265,35.7089 115.5,32.5C 119.167,34.1667 120.167,33.1667 118.5,29.5 Z"/></g>
<g><path style="opacity:0.996" fill="#db645f" d="M 22.5,36.5 C 22.2503,38.674 21.2503,40.3406 19.5,41.5C 19.5323,39.3812 18.5323,38.0478 16.5,37.5C 16.8333,36.5 17.5,35.8333 18.5,35.5C 18.8212,37.0481 19.8212,37.7148 21.5,37.5C 21.5563,34.483 21.8897,34.1497 22.5,36.5 Z"/></g>
<g><path style="opacity:0.694" fill="#747572" d="M 79.5,34.5 C 81.9699,34.6535 83.9699,35.6535 85.5,37.5C 84.4937,37.9377 84.4937,38.6043 85.5,39.5C 82.341,38.6693 79.341,37.6693 76.5,36.5C 78.1788,36.7148 79.1788,36.0481 79.5,34.5 Z"/></g>
<g><path style="opacity:0.567" fill="#565a59" d="M 85.5,37.5 C 87.5529,37.4021 89.2196,38.0687 90.5,39.5C 90.7373,40.791 90.404,41.791 89.5,42.5C 87.5956,42.2624 86.2623,41.2624 85.5,39.5C 84.4937,38.6043 84.4937,37.9377 85.5,37.5 Z"/></g>
<g><path style="opacity:0.231" fill="#fabbbd" d="M 123.5,36.5 C 124.906,36.9731 125.573,37.9731 125.5,39.5C 125.167,39.5 124.833,39.5 124.5,39.5C 123.89,38.609 123.557,37.609 123.5,36.5 Z"/></g>
<g><path style="opacity:0.922" fill="#626461" d="M 57.5,36.5 C 58.209,37.404 59.209,37.7373 60.5,37.5C 58.0713,38.5512 55.738,39.8845 53.5,41.5C 51.2043,41.1959 50.871,40.1959 52.5,38.5C 53.9303,37.4625 55.597,36.7959 57.5,36.5 Z"/></g>
<g><path style="opacity:1" fill="#4e4c4d" d="M 103.5,37.5 C 102.068,39.3271 100.401,40.9937 98.5,42.5C 96.6253,41.5905 95.292,40.2572 94.5,38.5C 94.8333,38.5 95.1667,38.5 95.5,38.5C 97.5295,39.2724 99.3629,38.6057 101,36.5C 101.671,37.2524 102.504,37.5858 103.5,37.5 Z"/></g>
<g><path style="opacity:0.996" fill="#db4440" d="M 123.5,36.5 C 123.557,37.609 123.89,38.609 124.5,39.5C 123.867,39.8795 123.2,40.2129 122.5,40.5C 123.309,42.0709 123.643,43.7376 123.5,45.5C 121.896,44.713 121.229,43.3797 121.5,41.5C 120.986,39.4884 120.82,37.4884 121,35.5C 121.671,36.2524 122.504,36.5858 123.5,36.5 Z"/></g>
<g><path style="opacity:1" fill="#201d1e" d="M 31.5,39.5 C 35.8383,39.6219 36.1716,39.9553 32.5,40.5C 32.5,41.8333 32.5,43.1667 32.5,44.5C 32.0954,45.5498 31.4288,45.5498 30.5,44.5C 29.5713,43.3112 29.238,41.9778 29.5,40.5C 30.4916,40.6716 31.1583,40.3382 31.5,39.5 Z"/></g>
<g><path style="opacity:0.985" fill="#282627" d="M 38.5,37.5 C 38.8333,37.5 39.1667,37.5 39.5,37.5C 39.4142,38.4959 39.7476,39.3292 40.5,40C 39.6195,40.7083 38.9528,41.5416 38.5,42.5C 38.1667,42.5 37.8333,42.5 37.5,42.5C 37.1583,41.6618 36.4916,41.3284 35.5,41.5C 33.2043,41.8041 32.871,42.8041 34.5,44.5C 33.8333,44.5 33.1667,44.5 32.5,44.5C 32.5,43.1667 32.5,41.8333 32.5,40.5C 36.1716,39.9553 35.8383,39.6219 31.5,39.5C 31.369,38.7611 31.5357,38.0944 32,37.5C 33.8754,38.6231 36.0421,38.6231 38.5,37.5 Z"/></g>
<g><path style="opacity:0.908" fill="#504f4f" d="M 39.5,37.5 C 40.391,38.1098 41.391,38.4431 42.5,38.5C 43.1667,38.5 43.5,38.8333 43.5,39.5C 44.0838,42.285 43.0838,43.9517 40.5,44.5C 40.5,43.1667 39.8333,42.5 38.5,42.5C 38.9528,41.5416 39.6195,40.7083 40.5,40C 39.7476,39.3292 39.4142,38.4959 39.5,37.5 Z"/></g>
<g><path style="opacity:0.937" fill="#7c807f" d="M 52.5,38.5 C 50.871,40.1959 51.2043,41.1959 53.5,41.5C 51.8608,42.4725 50.5274,43.8058 49.5,45.5C 49.1667,45.5 48.8333,45.5 48.5,45.5C 48.5,44.1667 47.8333,43.5 46.5,43.5C 47.9108,41.086 49.9108,39.4194 52.5,38.5 Z"/></g>
<g><path style="opacity:1" fill="#353233" d="M 111.5,40.5 C 110.094,40.9731 109.427,41.9731 109.5,43.5C 107.517,43.1568 106.183,43.8235 105.5,45.5C 104.833,45.8333 104.167,46.1667 103.5,46.5C 102.549,45.0813 102.216,43.4147 102.5,41.5C 105.29,36.9838 108.29,36.6504 111.5,40.5 Z"/></g>
<g><path style="opacity:0.506" fill="#7c7a7c" d="M 90.5,39.5 C 92.1667,40.5 93.5,41.8333 94.5,43.5C 93.1667,43.5 92.5,44.1667 92.5,45.5C 92.1667,45.5 91.8333,45.5 91.5,45.5C 90.8333,44.5 90.1667,43.5 89.5,42.5C 90.404,41.791 90.7373,40.791 90.5,39.5 Z"/></g>
<g><path style="opacity:0.2" fill="#b1b0b0" d="M 35.5,41.5 C 36.4916,41.3284 37.1583,41.6618 37.5,42.5C 37.6716,43.4916 37.3382,44.1583 36.5,44.5C 36.4431,43.391 36.1098,42.391 35.5,41.5 Z"/></g>
<g><path style="opacity:0.825" fill="#5a5b59" d="M 94.5,43.5 C 95.5,44.1667 96.5,44.8333 97.5,45.5C 97.5,45.8333 97.5,46.1667 97.5,46.5C 96.5041,46.5858 95.6708,46.2524 95,45.5C 94.5357,46.0944 94.369,46.7611 94.5,47.5C 94.1667,47.5 93.8333,47.5 93.5,47.5C 93.5,46.8333 93.1667,46.5 92.5,46.5C 92.5,46.1667 92.5,45.8333 92.5,45.5C 92.5,44.1667 93.1667,43.5 94.5,43.5 Z"/></g>
<g><path style="opacity:0.063" fill="#b3b2b2" d="M 109.5,43.5 C 109.5,44.5 109.5,45.5 109.5,46.5C 109.167,46.5 108.833,46.5 108.5,46.5C 108.631,45.6236 108.298,44.9569 107.5,44.5C 106.537,44.9698 106.537,45.6365 107.5,46.5C 107.167,46.5 106.833,46.5 106.5,46.5C 105.833,46.5 105.5,46.1667 105.5,45.5C 106.183,43.8235 107.517,43.1568 109.5,43.5 Z M 108.5,46.5 C 108.167,46.5 107.833,46.5 107.5,46.5C 106.537,45.6365 106.537,44.9698 107.5,44.5C 108.298,44.9569 108.631,45.6236 108.5,46.5 Z"/></g>
<g><path style="opacity:0.949" fill="#dd5551" d="M 16.5,37.5 C 18.5323,38.0478 19.5323,39.3812 19.5,41.5C 19.7373,42.791 19.404,43.791 18.5,44.5C 16.8958,45.287 16.2291,46.6203 16.5,48.5C 16.5701,52.4248 15.9034,56.0915 14.5,59.5C 14.7563,55.1382 14.923,50.8049 15,46.5C 14.1482,47.5707 13.3149,48.5707 12.5,49.5C 13.3089,45.2406 14.6422,41.2406 16.5,37.5 Z"/></g>
<g><path style="opacity:1" fill="#353233" d="M 37.5,42.5 C 37.8333,42.5 38.1667,42.5 38.5,42.5C 39.8333,42.5 40.5,43.1667 40.5,44.5C 40.5792,45.9305 40.2458,47.2638 39.5,48.5C 36.6908,49.8003 34.0241,49.8003 31.5,48.5C 33.1992,48.6602 34.8659,48.4935 36.5,48C 33.8749,46.6072 33.8749,45.4405 36.5,44.5C 37.3382,44.1583 37.6716,43.4916 37.5,42.5 Z"/></g>
<g><path style="opacity:0.153" fill="#a3a3a4" d="M 73.5,46.5 C 71.0504,46.298 68.717,46.6314 66.5,47.5C 67.1522,46.2749 68.3189,45.6083 70,45.5C 71.3847,45.5143 72.5514,45.8476 73.5,46.5 Z"/></g>
<g><path style="opacity:0.99" fill="#2a2929" d="M 111.5,40.5 C 112.488,41.795 113.488,43.1283 114.5,44.5C 114.5,45.5 114.5,46.5 114.5,47.5C 113.178,47.33 112.011,47.6634 111,48.5C 110.283,47.9558 109.783,47.2891 109.5,46.5C 109.5,45.5 109.5,44.5 109.5,43.5C 109.427,41.9731 110.094,40.9731 111.5,40.5 Z"/></g>
<g><path style="opacity:0.953" fill="#d85350" d="M 124.5,39.5 C 124.833,39.5 125.167,39.5 125.5,39.5C 127.08,42.6592 128.08,45.9925 128.5,49.5C 127.685,48.5707 126.852,47.5707 126,46.5C 125.503,49.146 125.336,51.8127 125.5,54.5C 124.525,51.6888 123.858,48.6888 123.5,45.5C 123.643,43.7376 123.309,42.0709 122.5,40.5C 123.2,40.2129 123.867,39.8795 124.5,39.5 Z"/></g>
<g><path style="opacity:0.137" fill="#fca09d" d="M 18.5,44.5 C 18.3404,46.153 17.6737,47.4863 16.5,48.5C 16.2291,46.6203 16.8958,45.287 18.5,44.5 Z"/></g>
<g><path style="opacity:0.971" fill="#282626" d="M 29.5,40.5 C 29.238,41.9778 29.5713,43.3112 30.5,44.5C 31.4288,45.5498 32.0954,45.5498 32.5,44.5C 33.1667,44.5 33.8333,44.5 34.5,44.5C 35.1667,44.5 35.8333,44.5 36.5,44.5C 33.8749,45.4405 33.8749,46.6072 36.5,48C 34.8659,48.4935 33.1992,48.6602 31.5,48.5C 31.1667,47.5 30.5,46.8333 29.5,46.5C 28.2584,44.3888 28.2584,42.3888 29.5,40.5 Z"/></g>
<g><path style="opacity:0.761" fill="#2f2f2e" d="M 46.5,43.5 C 47.8333,43.5 48.5,44.1667 48.5,45.5C 47.5,45.8333 46.8333,46.5 46.5,47.5C 46.5,47.8333 46.5,48.1667 46.5,48.5C 45.6236,48.6309 44.9569,48.2975 44.5,47.5C 45.6302,46.3777 46.2969,45.0443 46.5,43.5 Z"/></g>
<g><path style="opacity:0.541" fill="#33393a" d="M 73.5,46.5 C 72.1667,47.5 70.8333,48.5 69.5,49.5C 69.1667,49.5 68.8333,49.5 68.5,49.5C 67.8333,49.5 67.5,49.8333 67.5,50.5C 66.6618,50.1583 66.3284,49.4916 66.5,48.5C 66.5,48.1667 66.5,47.8333 66.5,47.5C 68.717,46.6314 71.0504,46.298 73.5,46.5 Z"/></g>
<g><path style="opacity:0.667" fill="#57705e" d="M 91.5,45.5 C 91.5,46.1667 91.8333,46.5 92.5,46.5C 93.1667,46.5 93.5,46.8333 93.5,47.5C 93.0679,48.7095 92.4013,49.7095 91.5,50.5C 91.5,49.1667 90.8333,48.5 89.5,48.5C 87.5853,48.7845 85.9187,48.4511 84.5,47.5C 86.4786,45.8325 88.812,45.1658 91.5,45.5 Z"/></g>
<g><path style="opacity:0.388" fill="#908d8e" d="M 102.5,41.5 C 102.216,43.4147 102.549,45.0813 103.5,46.5C 103.5,47.1667 103.5,47.8333 103.5,48.5C 101.744,47.4479 101.077,45.7812 101.5,43.5C 101.328,42.5084 101.662,41.8417 102.5,41.5 Z"/></g>
<g><path style="opacity:0.004" fill="#d3d1d1" d="M 29.5,46.5 C 30.5,46.8333 31.1667,47.5 31.5,48.5C 30.1667,48.5 29.5,47.8333 29.5,46.5 Z"/></g>
<g><path style="opacity:0.878" fill="#848484" d="M 46.5,43.5 C 46.2969,45.0443 45.6302,46.3777 44.5,47.5C 44.9569,48.2975 45.6236,48.6309 46.5,48.5C 45.5,49.5 44.5,50.5 43.5,51.5C 43.7373,50.209 43.404,49.209 42.5,48.5C 43.0798,46.2512 44.4131,44.5846 46.5,43.5 Z"/></g>
<g><path style="opacity:0.757" fill="#7a9080" d="M 48.5,45.5 C 48.8333,46.8333 49.1667,46.8333 49.5,45.5C 51.4147,45.2155 53.0813,45.5489 54.5,46.5C 52.302,46.1201 50.6354,46.7868 49.5,48.5C 49.8333,49.8333 50.1667,51.1667 50.5,52.5C 50.1667,52.5 49.8333,52.5 49.5,52.5C 48.3077,50.8869 47.3077,49.2202 46.5,47.5C 46.8333,46.5 47.5,45.8333 48.5,45.5 Z"/></g>
<g><path style="opacity:0.306" fill="#92a79f" d="M 58.5,46.5 C 58.7352,45.9033 59.2352,45.5699 60,45.5C 61.3638,46.3707 62.5305,47.3707 63.5,48.5C 61.6776,48.1692 60.0109,47.5025 58.5,46.5 Z"/></g>
<g><path style="opacity:0.337" fill="#32573c" d="M 84.5,47.5 C 85.9187,48.4511 87.5853,48.7845 89.5,48.5C 89.5,49.8333 88.8333,50.5 87.5,50.5C 86.1667,50.5 84.8333,50.5 83.5,50.5C 83.5858,49.5041 83.2524,48.6708 82.5,48C 83.0944,47.5357 83.7611,47.369 84.5,47.5 Z"/></g>
<g><path style="opacity:0.996" fill="#294932" d="M 49.5,48.5 C 50.8333,48.5 52.1667,48.5 53.5,48.5C 53.0339,51.1309 52.3672,53.2976 51.5,55C 52.5768,55.4696 53.5768,55.3029 54.5,54.5C 55.1494,55.6063 55.4827,56.6063 55.5,57.5C 56.7143,55.6203 58.0476,55.2869 59.5,56.5C 57.8583,58.0808 55.8583,58.7475 53.5,58.5C 53.631,57.7611 53.4643,57.0944 53,56.5C 52.3292,57.2524 51.4959,57.5858 50.5,57.5C 49.9285,56.0267 49.9285,54.36 50.5,52.5C 50.1667,51.1667 49.8333,49.8333 49.5,48.5 Z"/></g>
<g><path style="opacity:0.275" fill="#878b8b" d="M 73.5,46.5 C 74.404,47.209 74.7373,48.209 74.5,49.5C 72.8333,52.1667 71.1667,52.1667 69.5,49.5C 70.8333,48.5 72.1667,47.5 73.5,46.5 Z"/></g>
<g><path style="opacity:0.957" fill="#476b54" d="M 84.5,47.5 C 83.7611,47.369 83.0944,47.5357 82.5,48C 83.2524,48.6708 83.5858,49.5041 83.5,50.5C 82.8333,50.5 82.1667,50.5 81.5,50.5C 80.5,50.5 79.5,50.5 78.5,50.5C 78.8333,49.1667 79.1667,47.8333 79.5,46.5C 81.3379,45.3217 83.0045,45.655 84.5,47.5 Z"/></g>
<g><path style="opacity:0.676" fill="#4b4b4b" d="M 97.5,46.5 C 98.3382,46.8417 98.6716,47.5084 98.5,48.5C 98.7373,49.791 98.404,50.791 97.5,51.5C 96.1224,50.4549 95.1224,49.1216 94.5,47.5C 94.369,46.7611 94.5357,46.0944 95,45.5C 95.6708,46.2524 96.5041,46.5858 97.5,46.5 Z"/></g>
<g><path style="opacity:0.973" fill="#272526" d="M 101.5,43.5 C 101.077,45.7812 101.744,47.4479 103.5,48.5C 104.401,49.2905 105.068,50.2905 105.5,51.5C 105.179,53.0481 104.179,53.7148 102.5,53.5C 101.396,51.6115 100.063,49.9448 98.5,48.5C 98.6716,47.5084 98.3382,46.8417 97.5,46.5C 97.5,46.1667 97.5,45.8333 97.5,45.5C 98.1834,43.8235 99.5168,43.1568 101.5,43.5 Z"/></g>
<g><path style="opacity:0.98" fill="#211f20" d="M 105.5,45.5 C 105.5,46.1667 105.833,46.5 106.5,46.5C 107.968,47.7791 108.635,49.4458 108.5,51.5C 107.5,51.5 106.5,51.5 105.5,51.5C 105.068,50.2905 104.401,49.2905 103.5,48.5C 103.5,47.8333 103.5,47.1667 103.5,46.5C 104.167,46.1667 104.833,45.8333 105.5,45.5 Z"/></g>
<g><path style="opacity:0.954" fill="#605d5e" d="M 114.5,44.5 C 115.451,45.9187 115.784,47.5853 115.5,49.5C 112.286,50.4404 109.286,51.9404 106.5,54C 104.934,54.765 103.601,54.5983 102.5,53.5C 104.179,53.7148 105.179,53.0481 105.5,51.5C 106.5,51.5 107.5,51.5 108.5,51.5C 108.635,49.4458 107.968,47.7791 106.5,46.5C 106.833,46.5 107.167,46.5 107.5,46.5C 107.833,46.5 108.167,46.5 108.5,46.5C 108.833,46.5 109.167,46.5 109.5,46.5C 109.783,47.2891 110.283,47.9558 111,48.5C 112.011,47.6634 113.178,47.33 114.5,47.5C 114.5,46.5 114.5,45.5 114.5,44.5 Z"/></g>
<g><path style="opacity:0.701" fill="#4e4f4f" d="M 42.5,48.5 C 43.404,49.209 43.7373,50.209 43.5,51.5C 43.7373,52.791 43.404,53.791 42.5,54.5C 41.6365,55.463 40.9698,55.463 40.5,54.5C 41.2458,53.2638 41.5792,51.9305 41.5,50.5C 41.8333,49.8333 42.1667,49.1667 42.5,48.5 Z"/></g>
<g><path style="opacity:1" fill="#3b683e" d="M 54.5,46.5 C 55.1667,46.8333 55.8333,47.1667 56.5,47.5C 57.3984,48.1577 58.3984,48.8243 59.5,49.5C 58.6371,50.7264 58.6371,52.0597 59.5,53.5C 58.8333,53.1667 58.1667,52.8333 57.5,52.5C 57.1788,50.9519 56.1788,50.2852 54.5,50.5C 54.5,49.1667 54.5,47.8333 54.5,46.5 Z"/></g>
<g><path style="opacity:1" fill="#3c5b48" d="M 58.5,46.5 C 60.0109,47.5025 61.6776,48.1692 63.5,48.5C 64.3382,48.8417 64.6716,49.5084 64.5,50.5C 64.1667,50.5 63.8333,50.5 63.5,50.5C 63.0461,52.2589 63.0461,54.2589 63.5,56.5C 62.8333,56.5 62.1667,56.5 61.5,56.5C 61.2178,55.2223 60.5511,54.2223 59.5,53.5C 58.6371,52.0597 58.6371,50.7264 59.5,49.5C 58.3984,48.8243 57.3984,48.1577 56.5,47.5C 56.8417,46.6618 57.5084,46.3284 58.5,46.5 Z"/></g>
<g><path style="opacity:0.91" fill="#7e8f83" d="M 79.5,46.5 C 79.1667,47.8333 78.8333,49.1667 78.5,50.5C 77.3995,51.6049 76.7329,52.9382 76.5,54.5C 74.744,53.4479 74.0773,51.7812 74.5,49.5C 75.2216,49.9175 75.7216,50.5842 76,51.5C 76.2065,49.0643 77.3731,47.3976 79.5,46.5 Z"/></g>
<g><path style="opacity:1" fill="#d6292e" d="M 14.5,59.5 C 14.5,59.8333 14.5,60.1667 14.5,60.5C 14.1667,60.5 13.8333,60.5 13.5,60.5C 13.8016,57.9407 13.4682,55.6074 12.5,53.5C 12.5,52.1667 12.5,50.8333 12.5,49.5C 13.3149,48.5707 14.1482,47.5707 15,46.5C 14.923,50.8049 14.7563,55.1382 14.5,59.5 Z"/></g>
<g><path style="opacity:1" fill="#646563" d="M 33.5,51.5 C 31.5,51.5 29.5,51.5 27.5,51.5C 27.5,52.5 27.5,53.5 27.5,54.5C 27.5,54.8333 27.5,55.1667 27.5,55.5C 27.5569,56.609 27.8902,57.609 28.5,58.5C 28.1667,58.5 27.8333,58.5 27.5,58.5C 26.6161,52.3334 24.9494,52.0001 22.5,57.5C 23.6341,50.4362 27.3007,48.4362 33.5,51.5 Z"/></g>
<g><path style="opacity:1" fill="#312e30" d="M 33.5,51.5 C 33.427,53.0269 34.0937,54.0269 35.5,54.5C 36.6857,55.7054 36.6857,57.0387 35.5,58.5C 34.6618,58.8417 34.3284,59.5084 34.5,60.5C 33.8333,60.5 33.5,60.1667 33.5,59.5C 33.5601,55.5149 31.5601,53.8482 27.5,54.5C 27.5,53.5 27.5,52.5 27.5,51.5C 29.5,51.5 31.5,51.5 33.5,51.5 Z"/></g>
<g><path style="opacity:0.965" fill="#465c3f" d="M 54.5,46.5 C 54.5,47.8333 54.5,49.1667 54.5,50.5C 56.1788,50.2852 57.1788,50.9519 57.5,52.5C 57.1788,54.0481 56.1788,54.7148 54.5,54.5C 53.5768,55.3029 52.5768,55.4696 51.5,55C 52.3672,53.2976 53.0339,51.1309 53.5,48.5C 52.1667,48.5 50.8333,48.5 49.5,48.5C 50.6354,46.7868 52.302,46.1201 54.5,46.5 Z"/></g>
<g><path style="opacity:0.545" fill="#6a736c" d="M 66.5,48.5 C 66.3284,49.4916 66.6618,50.1583 67.5,50.5C 68.1667,50.5 68.5,50.1667 68.5,49.5C 68.8333,49.5 69.1667,49.5 69.5,49.5C 69.4226,50.7498 68.756,51.5831 67.5,52C 67.7284,52.3988 68.0618,52.5654 68.5,52.5C 68.6309,53.3764 68.2975,54.0431 67.5,54.5C 66.8589,53.0065 65.8589,52.0065 64.5,51.5C 64.5,51.1667 64.5,50.8333 64.5,50.5C 65.1667,49.8333 65.8333,49.1667 66.5,48.5 Z"/></g>
<g><path style="opacity:0.435" fill="#363d34" d="M 69.5,49.5 C 71.1667,52.1667 72.8333,52.1667 74.5,49.5C 74.0773,51.7812 74.744,53.4479 76.5,54.5C 76.1667,55.1667 75.8333,55.8333 75.5,56.5C 72.5,56.5 69.5,56.5 66.5,56.5C 68.6669,55.3589 71.0002,54.3589 73.5,53.5C 71.753,53.0266 70.0863,52.6932 68.5,52.5C 68.0618,52.5654 67.7284,52.3988 67.5,52C 68.756,51.5831 69.4226,50.7498 69.5,49.5 Z"/></g>
<g><path style="opacity:1" fill="#485d38" d="M 81.5,50.5 C 82.1667,50.5 82.8333,50.5 83.5,50.5C 84.8333,50.5 86.1667,50.5 87.5,50.5C 87.5,51.1667 87.5,51.8333 87.5,52.5C 86.1805,53.9418 84.5138,54.6085 82.5,54.5C 82.4226,53.2502 81.756,52.4169 80.5,52C 81.056,51.6174 81.3893,51.1174 81.5,50.5 Z"/></g>
<g><path style="opacity:0.004" fill="#cadbcf" d="M 91.5,50.5 C 91.5,51.5 91.5,52.5 91.5,53.5C 88.8333,52.5 88.8333,51.5 91.5,50.5 Z"/></g>
<g><path style="opacity:1" fill="#445b43" d="M 78.5,50.5 C 79.5,50.5 80.5,50.5 81.5,50.5C 81.3893,51.1174 81.056,51.6174 80.5,52C 81.756,52.4169 82.4226,53.2502 82.5,54.5C 81.6618,54.8417 81.3284,55.5084 81.5,56.5C 79.5,56.5 77.5,56.5 75.5,56.5C 75.8333,55.8333 76.1667,55.1667 76.5,54.5C 76.7329,52.9382 77.3995,51.6049 78.5,50.5 Z"/></g>
<g><path style="opacity:0.973" fill="#375240" d="M 89.5,48.5 C 90.8333,48.5 91.5,49.1667 91.5,50.5C 88.8333,51.5 88.8333,52.5 91.5,53.5C 92.404,54.209 92.7373,55.209 92.5,56.5C 92.1667,56.5 91.8333,56.5 91.5,56.5C 91.1583,55.6618 90.4916,55.3284 89.5,55.5C 87.7091,54.7721 87.0424,53.7721 87.5,52.5C 87.5,51.8333 87.5,51.1667 87.5,50.5C 88.8333,50.5 89.5,49.8333 89.5,48.5 Z"/></g>
<g><path style="opacity:0.796" fill="#595959" d="M 98.5,48.5 C 100.063,49.9448 101.396,51.6115 102.5,53.5C 101.662,53.8417 101.328,54.5084 101.5,55.5C 100.508,55.3284 99.8417,55.6618 99.5,56.5C 98.0687,55.2196 97.4021,53.5529 97.5,51.5C 98.404,50.791 98.7373,49.791 98.5,48.5 Z"/></g>
<g><path style="opacity:0.251" fill="#adadad" d="M 33.5,51.5 C 34.9063,51.9731 35.573,52.9731 35.5,54.5C 34.0937,54.0269 33.427,53.0269 33.5,51.5 Z"/></g>
<g><path style="opacity:0.859" fill="#5c6d5f" d="M 49.5,52.5 C 49.8333,52.5 50.1667,52.5 50.5,52.5C 49.9285,54.36 49.9285,56.0267 50.5,57.5C 50.1667,57.5 49.8333,57.5 49.5,57.5C 46.8333,55.8333 46.8333,54.1667 49.5,52.5 Z"/></g>
<g><path style="opacity:1" fill="#d5282d" d="M 128.5,49.5 C 128.517,51.5648 128.85,53.5648 129.5,55.5C 127.797,54.3398 127.131,55.0065 127.5,57.5C 126.833,56.8333 126.167,56.1667 125.5,55.5C 125.5,55.1667 125.5,54.8333 125.5,54.5C 125.336,51.8127 125.503,49.146 126,46.5C 126.852,47.5707 127.685,48.5707 128.5,49.5 Z"/></g>
<g><path style="opacity:0.808" fill="#4f6d51" d="M 57.5,52.5 C 58.1667,52.8333 58.8333,53.1667 59.5,53.5C 60.5511,54.2223 61.2178,55.2223 61.5,56.5C 60.8333,56.5 60.1667,56.5 59.5,56.5C 58.0476,55.2869 56.7143,55.6203 55.5,57.5C 55.4827,56.6063 55.1494,55.6063 54.5,54.5C 56.1788,54.7148 57.1788,54.0481 57.5,52.5 Z"/></g>
<g><path style="opacity:0.431" fill="#586157" d="M 63.5,50.5 C 63.5,51.1667 63.8333,51.5 64.5,51.5C 65.8589,52.0065 66.8589,53.0065 67.5,54.5C 68.2975,54.0431 68.6309,53.3764 68.5,52.5C 70.0863,52.6932 71.753,53.0266 73.5,53.5C 71.0002,54.3589 68.6669,55.3589 66.5,56.5C 65.8333,56.5 65.1667,56.5 64.5,56.5C 64.1667,56.5 63.8333,56.5 63.5,56.5C 63.0461,54.2589 63.0461,52.2589 63.5,50.5 Z"/></g>
<g><path style="opacity:0.922" fill="#34583f" d="M 87.5,52.5 C 87.0424,53.7721 87.7091,54.7721 89.5,55.5C 86.4044,58.012 84.071,57.6786 82.5,54.5C 84.5138,54.6085 86.1805,53.9418 87.5,52.5 Z"/></g>
<g><path style="opacity:0.969" fill="#525150" d="M 115.5,54.5 C 114.127,54.3433 112.793,54.51 111.5,55C 110.226,55.9772 110.226,56.8106 111.5,57.5C 111.5,57.8333 111.5,58.1667 111.5,58.5C 111.5,59.5 111.5,60.5 111.5,61.5C 110.596,60.791 110.263,59.791 110.5,58.5C 109.5,58.5 108.5,58.5 107.5,58.5C 107.5,60.1667 107.5,61.8333 107.5,63.5C 104.991,55.6802 107.658,52.6802 115.5,54.5 Z"/></g>
<g><path style="opacity:0.998" fill="#211e1e" d="M 115.5,54.5 C 114.965,56.4456 113.632,57.4456 111.5,57.5C 110.226,56.8106 110.226,55.9772 111.5,55C 112.793,54.51 114.127,54.3433 115.5,54.5 Z"/></g>
<g><path style="opacity:0.997" fill="#df1f29" d="M 12.5,53.5 C 13.4682,55.6074 13.8016,57.9407 13.5,60.5C 12.6618,60.8417 12.3284,61.5084 12.5,62.5C 12.1667,62.5 11.8333,62.5 11.5,62.5C 11.19,59.2869 11.5233,56.2869 12.5,53.5 Z"/></g>
<g><path style="opacity:0.937" fill="#7b7b7b" d="M 41.5,50.5 C 41.5792,51.9305 41.2458,53.2638 40.5,54.5C 40.9698,55.463 41.6365,55.463 42.5,54.5C 42.3404,56.153 41.6737,57.4863 40.5,58.5C 40.631,57.7611 40.4643,57.0944 40,56.5C 39.5495,59.1059 38.0495,60.4392 35.5,60.5C 35.1667,60.5 34.8333,60.5 34.5,60.5C 34.3284,59.5084 34.6618,58.8417 35.5,58.5C 36.0768,59.7733 36.7435,59.7733 37.5,58.5C 38.6609,55.6416 39.9943,52.975 41.5,50.5 Z"/></g>
<g><path style="opacity:0.612" fill="#272525" d="M 27.5,58.5 C 27.5,59.1667 27.5,59.8333 27.5,60.5C 26.8826,60.3893 26.3826,60.056 26,59.5C 25.5831,60.756 24.7498,61.4226 23.5,61.5C 22.6236,61.6309 21.9569,61.2975 21.5,60.5C 22.1272,59.5832 22.4606,58.5832 22.5,57.5C 24.9494,52.0001 26.6161,52.3334 27.5,58.5 Z"/></g>
<g><path style="opacity:0.702" fill="#2e4135" d="M 82.5,54.5 C 84.071,57.6786 86.4044,58.012 89.5,55.5C 90.4916,55.3284 91.1583,55.6618 91.5,56.5C 89.2719,56.7769 87.6053,57.7769 86.5,59.5C 85.1667,60.1667 83.8333,60.8333 82.5,61.5C 82.7678,59.901 82.4345,58.5676 81.5,57.5C 81.5,57.1667 81.5,56.8333 81.5,56.5C 81.3284,55.5084 81.6618,54.8417 82.5,54.5 Z"/></g>
<g><path style="opacity:0.993" fill="#4f4b4e" d="M 115.5,54.5 C 117.446,55.0347 118.446,56.368 118.5,58.5C 116.544,56.8249 115.211,57.1582 114.5,59.5C 114.672,60.4916 114.338,61.1583 113.5,61.5C 113.715,59.8212 113.048,58.8212 111.5,58.5C 111.5,58.1667 111.5,57.8333 111.5,57.5C 113.632,57.4456 114.965,56.4456 115.5,54.5 Z"/></g>
<g><path style="opacity:0.933" fill="#515050" d="M 27.5,55.5 C 27.5,55.1667 27.5,54.8333 27.5,54.5C 31.5601,53.8482 33.5601,55.5149 33.5,59.5C 32.2921,58.7659 30.9587,58.4326 29.5,58.5C 31.9169,56.5038 31.2502,55.5038 27.5,55.5 Z"/></g>
<g><path style="opacity:0.021" fill="#eeefec" d="M 53.5,58.5 C 51.901,58.7678 50.5676,58.4345 49.5,57.5C 49.8333,57.5 50.1667,57.5 50.5,57.5C 51.4959,57.5858 52.3292,57.2524 53,56.5C 53.4643,57.0944 53.631,57.7611 53.5,58.5 Z"/></g>
<g><path style="opacity:1" fill="#897139" d="M 64.5,56.5 C 65.1667,56.5 65.8333,56.5 66.5,56.5C 69.5,56.5 72.5,56.5 75.5,56.5C 77.5,56.5 79.5,56.5 81.5,56.5C 81.5,56.8333 81.5,57.1667 81.5,57.5C 81.8168,61.7016 81.4834,65.7016 80.5,69.5C 80.5,68.1667 80.5,66.8333 80.5,65.5C 80.5,62.8333 80.5,60.1667 80.5,57.5C 78.6203,57.2291 77.287,57.8958 76.5,59.5C 74.5,59.5 72.5,59.5 70.5,59.5C 68.7354,58.5386 66.7354,58.2053 64.5,58.5C 64.5,57.8333 64.5,57.1667 64.5,56.5 Z"/></g>
<g><path style="opacity:0.025" fill="#f0eeee" d="M 91.5,56.5 C 91.8333,56.5 92.1667,56.5 92.5,56.5C 90.8867,58.0879 88.8867,59.0879 86.5,59.5C 87.6053,57.7769 89.2719,56.7769 91.5,56.5 Z"/></g>
<g><path style="opacity:0.871" fill="#807f7f" d="M 101.5,55.5 C 103.074,57.1016 103.741,59.1016 103.5,61.5C 102.732,60.7375 102.232,59.7375 102,58.5C 101.501,62.4862 101.334,66.4862 101.5,70.5C 101.167,70.5 100.833,70.5 100.5,70.5C 100.717,65.7697 100.383,61.1031 99.5,56.5C 99.8417,55.6618 100.508,55.3284 101.5,55.5 Z"/></g>
<g><path style="opacity:1" fill="#a33a2c" d="M 64.5,58.5 C 66.7354,58.2053 68.7354,58.5386 70.5,59.5C 70.5,61.5 70.5,63.5 70.5,65.5C 69.5,65.5 68.5,65.5 67.5,65.5C 67.5,64.1667 67.5,62.8333 67.5,61.5C 67.9175,60.7784 68.5842,60.2784 69.5,60C 67.6183,59.8019 65.9516,59.3019 64.5,58.5 Z"/></g>
<g><path style="opacity:1" fill="#d49c56" d="M 80.5,65.5 C 79.5,65.5 78.5,65.5 77.5,65.5C 80.1667,64.1667 80.1667,62.8333 77.5,61.5C 77.1667,60.8333 76.8333,60.1667 76.5,59.5C 77.287,57.8958 78.6203,57.2291 80.5,57.5C 80.5,60.1667 80.5,62.8333 80.5,65.5 Z"/></g>
<g><path style="opacity:0.724" fill="#282928" d="M 118.5,58.5 C 118.795,60.7354 118.461,62.7354 117.5,64.5C 116.687,62.7392 115.687,61.0725 114.5,59.5C 115.211,57.1582 116.544,56.8249 118.5,58.5 Z"/></g>
<g><path style="opacity:0.69" fill="#c64145" d="M 12.5,49.5 C 12.5,50.8333 12.5,52.1667 12.5,53.5C 11.5233,56.2869 11.19,59.2869 11.5,62.5C 11.5,63.1667 11.5,63.8333 11.5,64.5C 10.5269,62.0521 10.1936,59.3854 10.5,56.5C 10.4095,53.8478 11.0762,51.5145 12.5,49.5 Z"/></g>
<g><path style="opacity:0.997" fill="#474445" d="M 27.5,60.5 C 27.8102,62.1436 28.8102,63.1436 30.5,63.5C 30.5,63.8333 30.5,64.1667 30.5,64.5C 27.8427,64.0652 25.5093,63.0652 23.5,61.5C 24.7498,61.4226 25.5831,60.756 26,59.5C 26.3826,60.056 26.8826,60.3893 27.5,60.5 Z"/></g>
<g><path style="opacity:1" fill="#923c38" d="M 59.5,56.5 C 60.1667,56.5 60.8333,56.5 61.5,56.5C 62.1667,56.5 62.8333,56.5 63.5,56.5C 63.8333,56.5 64.1667,56.5 64.5,56.5C 64.5,57.1667 64.5,57.8333 64.5,58.5C 65.9516,59.3019 67.6183,59.8019 69.5,60C 68.5842,60.2784 67.9175,60.7784 67.5,61.5C 67.1667,61.5 66.8333,61.5 66.5,61.5C 65.791,60.596 64.791,60.2627 63.5,60.5C 62.8166,58.8235 61.4832,58.1568 59.5,58.5C 59.5,57.8333 59.5,57.1667 59.5,56.5 Z"/></g>
<g><path style="opacity:0.988" fill="#2a292a" d="M 40.5,58.5 C 40.5,59.5 40.5,60.5 40.5,61.5C 39.6618,61.8417 39.3284,62.5084 39.5,63.5C 38.7784,63.0825 38.2784,62.4158 38,61.5C 37.7216,62.4158 37.2216,63.0825 36.5,63.5C 36.4431,62.391 36.1098,61.391 35.5,60.5C 38.0495,60.4392 39.5495,59.1059 40,56.5C 40.4643,57.0944 40.631,57.7611 40.5,58.5 Z"/></g>
<g><path style="opacity:1" fill="#d59051" d="M 70.5,59.5 C 72.5,59.5 74.5,59.5 76.5,59.5C 76.8333,60.1667 77.1667,60.8333 77.5,61.5C 75.9731,61.427 74.9731,62.0937 74.5,63.5C 73.2905,63.9321 72.2905,64.5987 71.5,65.5C 71.1667,65.5 70.8333,65.5 70.5,65.5C 70.5,63.5 70.5,61.5 70.5,59.5 Z"/></g>
<g><path style="opacity:0.749" fill="#db625f" d="M 128.5,49.5 C 130.735,53.7874 131.735,58.4541 131.5,63.5C 131.167,63.5 130.833,63.5 130.5,63.5C 129.527,61.0521 129.194,58.3854 129.5,55.5C 128.85,53.5648 128.517,51.5648 128.5,49.5 Z"/></g>
<g><path style="opacity:1" fill="#211e1f" d="M 27.5,58.5 C 27.8333,58.5 28.1667,58.5 28.5,58.5C 28.8333,58.5 29.1667,58.5 29.5,58.5C 30.9587,58.4326 32.2921,58.7659 33.5,59.5C 33.5,60.1667 33.8333,60.5 34.5,60.5C 34.8333,60.5 35.1667,60.5 35.5,60.5C 36.1098,61.391 36.4431,62.391 36.5,63.5C 35.5416,63.0472 34.7083,62.3805 34,61.5C 33.6667,62.1667 33.3333,62.8333 33,63.5C 32.2303,62.4019 31.397,62.4019 30.5,63.5C 28.8102,63.1436 27.8102,62.1436 27.5,60.5C 27.5,59.8333 27.5,59.1667 27.5,58.5 Z"/></g>
<g><path style="opacity:0.122" fill="#a9aab0" d="M 53.5,59.5 C 55.3435,61.2789 56.0102,63.6122 55.5,66.5C 54.7321,64.2854 54.0654,61.9521 53.5,59.5 Z"/></g>
<g><path style="opacity:1" fill="#dd212a" d="M 129.5,55.5 C 129.194,58.3854 129.527,61.0521 130.5,63.5C 129.756,67.1185 129.423,70.7852 129.5,74.5C 128.596,73.791 128.263,72.791 128.5,71.5C 128.774,66.737 128.441,62.0704 127.5,57.5C 127.131,55.0065 127.797,54.3398 129.5,55.5 Z"/></g>
<g><path style="opacity:0.738" fill="#242323" d="M 36.5,63.5 C 37.2216,63.0825 37.7216,62.4158 38,61.5C 38.2784,62.4158 38.7784,63.0825 39.5,63.5C 39.665,66.8499 39.4983,70.1832 39,73.5C 38.7216,72.5842 38.2216,71.9175 37.5,71.5C 37.5,69.1667 37.5,66.8333 37.5,64.5C 35.5,64.5 33.5,64.5 31.5,64.5C 31.1667,64.5 30.8333,64.5 30.5,64.5C 30.5,64.1667 30.5,63.8333 30.5,63.5C 31.397,62.4019 32.2303,62.4019 33,63.5C 33.3333,62.8333 33.6667,62.1667 34,61.5C 34.7083,62.3805 35.5416,63.0472 36.5,63.5 Z"/></g>
<g><path style="opacity:0.89" fill="#2e3030" d="M 59.5,56.5 C 59.5,57.1667 59.5,57.8333 59.5,58.5C 58.8333,61.8333 58.1667,65.1667 57.5,68.5C 57.6633,66.1432 57.4966,63.8098 57,61.5C 56.8019,63.3817 56.3019,65.0484 55.5,66.5C 56.0102,63.6122 55.3435,61.2789 53.5,59.5C 53.5,59.1667 53.5,58.8333 53.5,58.5C 55.8583,58.7475 57.8583,58.0808 59.5,56.5 Z"/></g>
<g><path style="opacity:0.927" fill="#5e5745" d="M 81.5,57.5 C 82.4345,58.5676 82.7678,59.901 82.5,61.5C 82.5,61.8333 82.5,62.1667 82.5,62.5C 82.5,65.1667 82.5,67.8333 82.5,70.5C 80.5853,70.2155 78.9187,70.5489 77.5,71.5C 77.1667,71.5 76.8333,71.5 76.5,71.5C 76.6716,70.5084 76.3382,69.8417 75.5,69.5C 75.5,69.1667 75.5,68.8333 75.5,68.5C 76.1667,68.5 76.8333,68.5 77.5,68.5C 78.209,69.404 79.209,69.7373 80.5,69.5C 81.4834,65.7016 81.8168,61.7016 81.5,57.5 Z"/></g>
<g><path style="opacity:0.957" fill="#222021" d="M 111.5,61.5 C 112.141,62.4822 112.807,63.4822 113.5,64.5C 111.54,65.5192 109.54,65.5192 107.5,64.5C 107.5,64.1667 107.5,63.8333 107.5,63.5C 107.5,61.8333 107.5,60.1667 107.5,58.5C 108.5,58.5 109.5,58.5 110.5,58.5C 110.263,59.791 110.596,60.791 111.5,61.5 Z"/></g>
<g><path style="opacity:1" fill="#c13840" d="M 59.5,58.5 C 61.4832,58.1568 62.8166,58.8235 63.5,60.5C 63.1667,60.5 62.8333,60.5 62.5,60.5C 61.5655,61.5676 61.2322,62.901 61.5,64.5C 60.8761,64.9169 60.5427,65.5836 60.5,66.5C 60.7472,67.7133 61.4138,68.38 62.5,68.5C 61.791,69.404 60.791,69.7373 59.5,69.5C 59.5,65.8333 59.5,62.1667 59.5,58.5 Z"/></g>
<g><path style="opacity:1" fill="#614445" d="M 62.5,60.5 C 62.8333,60.5 63.1667,60.5 63.5,60.5C 64.791,60.2627 65.791,60.596 66.5,61.5C 66.5,62.5 66.5,63.5 66.5,64.5C 65.1667,64.5 63.8333,64.5 62.5,64.5C 62.5,63.1667 62.5,61.8333 62.5,60.5 Z"/></g>
<g><path style="opacity:1" fill="#a17c46" d="M 77.5,61.5 C 80.1667,62.8333 80.1667,64.1667 77.5,65.5C 77.5,65.8333 77.5,66.1667 77.5,66.5C 76.5,65.5 75.5,64.5 74.5,63.5C 74.9731,62.0937 75.9731,61.427 77.5,61.5 Z"/></g>
<g><path style="opacity:0.918" fill="#525959" d="M 86.5,59.5 C 85.5826,62.4173 84.916,65.4173 84.5,68.5C 84.6567,69.8734 84.49,71.2068 84,72.5C 83.8213,68.9748 83.3213,65.6414 82.5,62.5C 82.5,62.1667 82.5,61.8333 82.5,61.5C 83.8333,60.8333 85.1667,60.1667 86.5,59.5 Z"/></g>
<g><path style="opacity:0.592" fill="#464545" d="M 103.5,61.5 C 104.833,64.8333 104.833,68.1667 103.5,71.5C 102.732,72.2625 102.232,73.2625 102,74.5C 101.51,73.2068 101.343,71.8734 101.5,70.5C 101.334,66.4862 101.501,62.4862 102,58.5C 102.232,59.7375 102.732,60.7375 103.5,61.5 Z"/></g>
<g><path style="opacity:1" fill="#c19150" d="M 74.5,63.5 C 75.5,64.5 76.5,65.5 77.5,66.5C 77.5,67.1667 77.5,67.8333 77.5,68.5C 76.8333,68.5 76.1667,68.5 75.5,68.5C 73.9382,68.2671 72.6049,67.6005 71.5,66.5C 71.5,66.1667 71.5,65.8333 71.5,65.5C 72.2905,64.5987 73.2905,63.9321 74.5,63.5 Z"/></g>
<g><path style="opacity:0.949" fill="#4b4949" d="M 114.5,59.5 C 115.687,61.0725 116.687,62.7392 117.5,64.5C 116.054,65.9402 114.221,66.6068 112,66.5C 109.992,66.6932 108.492,66.0265 107.5,64.5C 109.54,65.5192 111.54,65.5192 113.5,64.5C 112.807,63.4822 112.141,62.4822 111.5,61.5C 112.167,61.5 112.833,61.5 113.5,61.5C 114.338,61.1583 114.672,60.4916 114.5,59.5 Z"/></g>
<g><path style="opacity:1" fill="#803031" d="M 62.5,60.5 C 62.5,61.8333 62.5,63.1667 62.5,64.5C 63.8333,64.5 65.1667,64.5 66.5,64.5C 66.5,63.5 66.5,62.5 66.5,61.5C 66.8333,61.5 67.1667,61.5 67.5,61.5C 67.5,62.8333 67.5,64.1667 67.5,65.5C 68.5,65.5 69.5,65.5 70.5,65.5C 70.8333,65.5 71.1667,65.5 71.5,65.5C 71.5,65.8333 71.5,66.1667 71.5,66.5C 70.5,66.5 69.5,66.5 68.5,66.5C 67.1667,67.1667 65.8333,67.8333 64.5,68.5C 64.2294,66.5695 63.2294,65.2362 61.5,64.5C 61.2322,62.901 61.5655,61.5676 62.5,60.5 Z"/></g>
<g><path style="opacity:0.945" fill="#2e2b2c" d="M 30.5,65.5 C 30.8333,65.5 31.1667,65.5 31.5,65.5C 32.1667,65.5 32.8333,65.5 33.5,65.5C 33.5,66.5 33.5,67.5 33.5,68.5C 33.7373,69.791 33.404,70.791 32.5,71.5C 31.8506,70.3937 31.5173,69.3937 31.5,68.5C 30.8281,69.9492 30.1614,71.2825 29.5,72.5C 29.5,71.8333 29.1667,71.5 28.5,71.5C 27.6993,69.9582 27.366,68.2915 27.5,66.5C 28.791,66.7373 29.791,66.404 30.5,65.5 Z"/></g>
<g><path style="opacity:1" fill="#d83744" d="M 61.5,64.5 C 63.2294,65.2362 64.2294,66.5695 64.5,68.5C 63.8333,68.5 63.1667,68.5 62.5,68.5C 61.4138,68.38 60.7472,67.7133 60.5,66.5C 60.5427,65.5836 60.8761,64.9169 61.5,64.5 Z"/></g>
<g><path style="opacity:0.804" fill="#e16f70" d="M 10.5,56.5 C 10.1936,59.3854 10.5269,62.0521 11.5,64.5C 11.5,68.8333 11.5,73.1667 11.5,77.5C 11.5,78.5 11.5,79.5 11.5,80.5C 9.96688,76.1038 9.30021,71.4371 9.5,66.5C 9.5016,62.9825 9.83493,59.6491 10.5,56.5 Z"/></g>
<g><path style="opacity:0.995" fill="#454244" d="M 30.5,65.5 C 29.791,66.404 28.791,66.7373 27.5,66.5C 27.366,68.2915 27.6993,69.9582 28.5,71.5C 26.4727,71.6621 24.4727,71.4955 22.5,71C 21.6198,69.6439 21.2865,68.1439 21.5,66.5C 24.4552,65.8413 27.4552,65.5079 30.5,65.5 Z"/></g>
<g><path style="opacity:1" fill="#e5a24f" d="M 77.5,65.5 C 78.5,65.5 79.5,65.5 80.5,65.5C 80.5,66.8333 80.5,68.1667 80.5,69.5C 79.209,69.7373 78.209,69.404 77.5,68.5C 77.5,67.8333 77.5,67.1667 77.5,66.5C 77.5,66.1667 77.5,65.8333 77.5,65.5 Z"/></g>
<g><path style="opacity:0.78" fill="#de655e" d="M 125.5,55.5 C 126.167,56.1667 126.833,56.8333 127.5,57.5C 128.441,62.0704 128.774,66.737 128.5,71.5C 127.833,71.8333 127.167,72.1667 126.5,72.5C 126.625,66.7969 126.292,61.1302 125.5,55.5 Z"/></g>
<g><path style="opacity:0.808" fill="#d9584e" d="M 13.5,60.5 C 13.8333,60.5 14.1667,60.5 14.5,60.5C 14.5,64.5 14.5,68.5 14.5,72.5C 14.1667,72.5 13.8333,72.5 13.5,72.5C 12.5206,69.3752 12.1872,66.0419 12.5,62.5C 12.3284,61.5084 12.6618,60.8417 13.5,60.5 Z"/></g>
<g><path style="opacity:0.063" fill="#c0bfc0" d="M 31.5,65.5 C 31.5,65.1667 31.5,64.8333 31.5,64.5C 33.5,64.5 35.5,64.5 37.5,64.5C 37.5,66.8333 37.5,69.1667 37.5,71.5C 36.5386,69.7354 36.2053,67.7354 36.5,65.5C 35.5,65.5 34.5,65.5 33.5,65.5C 32.8333,65.5 32.1667,65.5 31.5,65.5 Z"/></g>
<g><path style="opacity:0.71" fill="#727172" d="M 111.5,69.5 C 110.167,69.5 108.833,69.5 107.5,69.5C 108.665,66.9781 109.998,66.9781 111.5,69.5 Z"/></g>
<g><path style="opacity:1" fill="#415261" d="M 68.5,66.5 C 67.6971,67.4232 67.5304,68.4232 68,69.5C 69.2917,68.2089 70.4583,68.2089 71.5,69.5C 69.6329,70.7598 68.2995,72.4265 67.5,74.5C 67.1667,74.5 66.8333,74.5 66.5,74.5C 65.4975,72.9891 64.8308,71.3224 64.5,69.5C 64.5,69.1667 64.5,68.8333 64.5,68.5C 65.8333,67.8333 67.1667,67.1667 68.5,66.5 Z"/></g>
<g><path style="opacity:1" fill="#7ba9bf" d="M 68.5,66.5 C 69.5,66.5 70.5,66.5 71.5,66.5C 72.6049,67.6005 73.9382,68.2671 75.5,68.5C 75.5,68.8333 75.5,69.1667 75.5,69.5C 75.631,70.2389 75.4643,70.9056 75,71.5C 73.9887,70.6634 72.8221,70.33 71.5,70.5C 71.5,70.1667 71.5,69.8333 71.5,69.5C 70.4583,68.2089 69.2917,68.2089 68,69.5C 67.5304,68.4232 67.6971,67.4232 68.5,66.5 Z"/></g>
<g><path style="opacity:0.784" fill="#e05b58" d="M 130.5,63.5 C 130.833,63.5 131.167,63.5 131.5,63.5C 131.818,68.0323 131.485,72.3656 130.5,76.5C 130.167,76.5 129.833,76.5 129.5,76.5C 129.5,75.8333 129.5,75.1667 129.5,74.5C 129.423,70.7852 129.756,67.1185 130.5,63.5 Z"/></g>
<g><path style="opacity:1" fill="#54373f" d="M 59.5,58.5 C 59.5,62.1667 59.5,65.8333 59.5,69.5C 60.791,69.7373 61.791,69.404 62.5,68.5C 63.1667,68.5 63.8333,68.5 64.5,68.5C 64.5,68.8333 64.5,69.1667 64.5,69.5C 62.9582,70.3007 61.2915,70.634 59.5,70.5C 59.5,71.5 59.5,72.5 59.5,73.5C 59.5,73.8333 59.5,74.1667 59.5,74.5C 58.2616,72.7857 57.595,70.7857 57.5,68.5C 58.1667,65.1667 58.8333,61.8333 59.5,58.5 Z"/></g>
<g><path style="opacity:1" fill="#80a0b4" d="M 64.5,69.5 C 64.8308,71.3224 65.4975,72.9891 66.5,74.5C 66.44,75.0431 66.1067,75.3764 65.5,75.5C 63.8211,73.8955 61.8211,73.2289 59.5,73.5C 59.5,72.5 59.5,71.5 59.5,70.5C 61.2915,70.634 62.9582,70.3007 64.5,69.5 Z"/></g>
<g><path style="opacity:1" fill="#4d4849" d="M 33.5,68.5 C 35.3088,71.0668 35.4754,73.7334 34,76.5C 33.3292,77.2524 32.4959,77.5858 31.5,77.5C 31.2053,75.2646 31.5386,73.2646 32.5,71.5C 33.404,70.791 33.7373,69.791 33.5,68.5 Z"/></g>
<g><path style="opacity:1" fill="#394441" d="M 71.5,69.5 C 71.5,69.8333 71.5,70.1667 71.5,70.5C 71.5271,72.1993 72.1938,73.5326 73.5,74.5C 73.5,75.1667 73.8333,75.5 74.5,75.5C 75.8333,76.8333 75.8333,78.1667 74.5,79.5C 73.8333,79.5 73.5,79.1667 73.5,78.5C 73.1583,77.6618 72.4916,77.3284 71.5,77.5C 71.5,76.8333 71.1667,76.5 70.5,76.5C 70.0269,75.0937 69.0269,74.427 67.5,74.5C 68.2995,72.4265 69.6329,70.7598 71.5,69.5 Z"/></g>
<g><path style="opacity:1" fill="#3a393a" d="M 118.5,72.5 C 118.167,72.5 117.833,72.5 117.5,72.5C 116.07,72.5792 114.736,72.2458 113.5,71.5C 112.749,72.376 112.249,73.376 112,74.5C 111.617,73.944 111.117,73.6107 110.5,73.5C 111.494,69.8501 110.66,69.8501 108,73.5C 107.51,72.2068 107.343,70.8734 107.5,69.5C 108.833,69.5 110.167,69.5 111.5,69.5C 115.219,67.6209 117.552,68.6209 118.5,72.5 Z"/></g>
<g><path style="opacity:1" fill="#4d6576" d="M 75.5,69.5 C 76.3382,69.8417 76.6716,70.5084 76.5,71.5C 75.8333,72.8333 74.8333,73.8333 73.5,74.5C 72.1938,73.5326 71.5271,72.1993 71.5,70.5C 72.8221,70.33 73.9887,70.6634 75,71.5C 75.4643,70.9056 75.631,70.2389 75.5,69.5 Z"/></g>
<g><path style="opacity:0.831" fill="#666766" d="M 82.5,62.5 C 83.3213,65.6414 83.8213,68.9748 84,72.5C 84.49,71.2068 84.6567,69.8734 84.5,68.5C 85.1347,71.8555 86.1347,75.1888 87.5,78.5C 86.8333,78.5 86.1667,78.5 85.5,78.5C 84.8333,78.5 84.1667,78.5 83.5,78.5C 82.7347,75.9039 82.4013,73.2372 82.5,70.5C 82.5,67.8333 82.5,65.1667 82.5,62.5 Z"/></g>
<g><path style="opacity:0.908" fill="#211f20" d="M 117.5,72.5 C 118.165,75.8884 117.165,76.8884 114.5,75.5C 113.287,75.7472 112.62,76.4138 112.5,77.5C 110.901,77.7678 109.568,77.4345 108.5,76.5C 109.167,75.5 109.833,74.5 110.5,73.5C 111.117,73.6107 111.617,73.944 112,74.5C 112.249,73.376 112.749,72.376 113.5,71.5C 114.736,72.2458 116.07,72.5792 117.5,72.5 Z"/></g>
<g><path style="opacity:1" fill="#dd222a" d="M 11.5,62.5 C 11.8333,62.5 12.1667,62.5 12.5,62.5C 12.1872,66.0419 12.5206,69.3752 13.5,72.5C 13.6621,74.5273 13.4955,76.5273 13,78.5C 12.6174,77.944 12.1174,77.6107 11.5,77.5C 11.5,73.1667 11.5,68.8333 11.5,64.5C 11.5,63.8333 11.5,63.1667 11.5,62.5 Z"/></g>
<g><path style="opacity:0.788" fill="#8f8f8f" d="M 40.5,61.5 C 40.0523,67.401 40.719,73.0677 42.5,78.5C 41.6851,77.5707 40.8518,76.5707 40,75.5C 39.5357,76.0944 39.369,76.7611 39.5,77.5C 37.9261,75.8984 37.2594,73.8984 37.5,71.5C 38.2216,71.9175 38.7216,72.5842 39,73.5C 39.4983,70.1832 39.665,66.8499 39.5,63.5C 39.3284,62.5084 39.6618,61.8417 40.5,61.5 Z"/></g>
<g><path style="opacity:0.478" fill="#626567" d="M 57.5,68.5 C 57.595,70.7857 58.2616,72.7857 59.5,74.5C 59.5,75.1667 59.5,75.8333 59.5,76.5C 58.0689,76.1193 57.2355,75.1193 57,73.5C 56.5831,74.756 55.7498,75.4226 54.5,75.5C 54.3677,72.4299 54.701,69.4299 55.5,66.5C 56.3019,65.0484 56.8019,63.3817 57,61.5C 57.4966,63.8098 57.6633,66.1432 57.5,68.5 Z"/></g>
<g><path style="opacity:1" fill="#768b98" d="M 82.5,70.5 C 82.4013,73.2372 82.7347,75.9039 83.5,78.5C 82.8333,78.5 82.1667,78.5 81.5,78.5C 81.5,77.5 81.5,76.5 81.5,75.5C 80.5423,72.8753 79.3757,72.8753 78,75.5C 76.4894,74.436 76.3228,73.1026 77.5,71.5C 78.9187,70.5489 80.5853,70.2155 82.5,70.5 Z"/></g>
<g><path style="opacity:0.973" fill="#5a5a5a" d="M 29.5,72.5 C 28.158,73.793 26.4913,74.6264 24.5,75C 26.3025,77.1025 28.6359,77.9358 31.5,77.5C 31.5,77.8333 31.5,78.1667 31.5,78.5C 28.5,78.5 25.5,78.5 22.5,78.5C 22.5,76.8333 22.5,75.1667 22.5,73.5C 24.861,73.3259 27.1944,72.9926 29.5,72.5 Z"/></g>
<g><path style="opacity:1" fill="#201e1e" d="M 32.5,71.5 C 31.5386,73.2646 31.2053,75.2646 31.5,77.5C 28.6359,77.9358 26.3025,77.1025 24.5,75C 26.4913,74.6264 28.158,73.793 29.5,72.5C 30.1614,71.2825 30.8281,69.9492 31.5,68.5C 31.5173,69.3937 31.8506,70.3937 32.5,71.5 Z"/></g>
<g><path style="opacity:0.775" fill="#545454" d="M 100.5,70.5 C 100.833,70.5 101.167,70.5 101.5,70.5C 101.343,71.8734 101.51,73.2068 102,74.5C 102.232,73.2625 102.732,72.2625 103.5,71.5C 103.416,74.3274 102.75,76.994 101.5,79.5C 100.883,79.6107 100.383,79.944 100,80.5C 99.5065,78.8659 99.3398,77.1992 99.5,75.5C 100.301,73.9582 100.634,72.2915 100.5,70.5 Z"/></g>
<g><path style="opacity:0.996" fill="#40483c" d="M 59.5,76.5 C 59.5,76.8333 59.5,77.1667 59.5,77.5C 59.5,78.1667 59.5,78.8333 59.5,79.5C 58.5,79.5 57.5,79.5 56.5,79.5C 55.791,78.596 54.791,78.2627 53.5,78.5C 53.2627,77.209 53.596,76.209 54.5,75.5C 55.7498,75.4226 56.5831,74.756 57,73.5C 57.2355,75.1193 58.0689,76.1193 59.5,76.5 Z"/></g>
<g><path style="opacity:1" fill="#28313e" d="M 76.5,71.5 C 76.8333,71.5 77.1667,71.5 77.5,71.5C 76.3228,73.1026 76.4894,74.436 78,75.5C 79.3757,72.8753 80.5423,72.8753 81.5,75.5C 80.2101,76.0577 79.3768,77.0577 79,78.5C 77.6003,77.252 76.1003,76.252 74.5,75.5C 73.8333,75.5 73.5,75.1667 73.5,74.5C 74.8333,73.8333 75.8333,72.8333 76.5,71.5 Z"/></g>
<g><path style="opacity:0.824" fill="#524f4f" d="M 107.5,69.5 C 107.343,70.8734 107.51,72.2068 108,73.5C 110.66,69.8501 111.494,69.8501 110.5,73.5C 109.833,74.5 109.167,75.5 108.5,76.5C 108.167,76.5 107.833,76.5 107.5,76.5C 106.305,76.1344 105.639,75.301 105.5,74C 105.899,72.2725 106.566,70.7725 107.5,69.5 Z"/></g>
<g><path style="opacity:0.806" fill="#424242" d="M 42.5,78.5 C 42.7148,80.1788 42.0481,81.1788 40.5,81.5C 39.5655,80.4324 39.2322,79.099 39.5,77.5C 39.369,76.7611 39.5357,76.0944 40,75.5C 40.8518,76.5707 41.6851,77.5707 42.5,78.5 Z"/></g>
<g><path style="opacity:1" fill="#303450" d="M 59.5,73.5 C 61.8211,73.2289 63.8211,73.8955 65.5,75.5C 66.1067,75.3764 66.44,75.0431 66.5,74.5C 66.8333,74.5 67.1667,74.5 67.5,74.5C 69.0269,74.427 70.0269,75.0937 70.5,76.5C 68.5648,77.1495 66.5648,77.4828 64.5,77.5C 63.5416,77.9528 62.7083,78.6195 62,79.5C 61.2917,78.6195 60.4584,77.9528 59.5,77.5C 59.5,77.1667 59.5,76.8333 59.5,76.5C 59.5,75.8333 59.5,75.1667 59.5,74.5C 59.5,74.1667 59.5,73.8333 59.5,73.5 Z"/></g>
<g><path style="opacity:0.949" fill="#4c4b4c" d="M 117.5,72.5 C 117.833,72.5 118.167,72.5 118.5,72.5C 119.105,78.2706 117.105,79.9373 112.5,77.5C 112.62,76.4138 113.287,75.7472 114.5,75.5C 117.165,76.8884 118.165,75.8884 117.5,72.5 Z"/></g>
<g><path style="opacity:1" fill="#222d2f" d="M 70.5,76.5 C 71.1667,76.5 71.5,76.8333 71.5,77.5C 69.4418,78.9331 67.1085,79.5997 64.5,79.5C 64.5,78.8333 64.5,78.1667 64.5,77.5C 66.5648,77.4828 68.5648,77.1495 70.5,76.5 Z"/></g>
<g><path style="opacity:0.2" fill="#cfcfcf" d="M 107.5,76.5 C 107.833,76.5 108.167,76.5 108.5,76.5C 109.568,77.4345 110.901,77.7678 112.5,77.5C 111.903,78.1386 111.07,78.472 110,78.5C 108.624,78.3158 107.791,77.6491 107.5,76.5 Z"/></g>
<g><path style="opacity:0.855" fill="#db4e4a" d="M 128.5,71.5 C 128.263,72.791 128.596,73.791 129.5,74.5C 129.5,75.1667 129.5,75.8333 129.5,76.5C 129.768,78.099 129.434,79.4324 128.5,80.5C 128.66,78.8008 128.494,77.1341 128,75.5C 127.292,76.3805 126.458,77.0472 125.5,77.5C 125.366,75.7085 125.699,74.0418 126.5,72.5C 127.167,72.1667 127.833,71.8333 128.5,71.5 Z"/></g>
<g><path style="opacity:0.992" fill="#d12a2f" d="M 13.5,72.5 C 13.8333,72.5 14.1667,72.5 14.5,72.5C 14.5,73.1667 14.5,73.8333 14.5,74.5C 14.6646,77.5184 14.498,80.5184 14,83.5C 13.6232,82.0577 12.7899,81.0577 11.5,80.5C 11.5,79.5 11.5,78.5 11.5,77.5C 12.1174,77.6107 12.6174,77.944 13,78.5C 13.4955,76.5273 13.6621,74.5273 13.5,72.5 Z"/></g>
<g><path style="opacity:1" fill="#8f909b" d="M 71.5,77.5 C 72.4916,77.3284 73.1583,77.6618 73.5,78.5C 71.3131,79.758 68.9798,80.758 66.5,81.5C 65.1667,81.5 64.5,80.8333 64.5,79.5C 67.1085,79.5997 69.4418,78.9331 71.5,77.5 Z"/></g>
<g><path style="opacity:1" fill="#4a4b50" d="M 74.5,75.5 C 76.1003,76.252 77.6003,77.252 79,78.5C 79.3768,77.0577 80.2101,76.0577 81.5,75.5C 81.5,76.5 81.5,77.5 81.5,78.5C 81.1667,79.1667 80.8333,79.8333 80.5,80.5C 79.5,80.5 78.5,80.5 77.5,80.5C 76.791,79.596 75.791,79.2627 74.5,79.5C 75.8333,78.1667 75.8333,76.8333 74.5,75.5 Z"/></g>
<g><path style="opacity:0.749" fill="#909090" d="M 99.5,75.5 C 99.3398,77.1992 99.5065,78.8659 100,80.5C 100.383,79.944 100.883,79.6107 101.5,79.5C 101.262,81.4044 100.262,82.7377 98.5,83.5C 98.7373,82.209 98.404,81.209 97.5,80.5C 97.7959,78.597 98.4625,76.9303 99.5,75.5 Z"/></g>
<g><path style="opacity:1" fill="#59543c" d="M 81.5,78.5 C 82.1667,78.5 82.8333,78.5 83.5,78.5C 84.1667,78.5 84.8333,78.5 85.5,78.5C 85.1077,80.1789 84.6077,81.8455 84,83.5C 83.6667,83.1667 83.3333,82.8333 83,82.5C 81.5993,84.1922 79.7659,84.8588 77.5,84.5C 77.5,83.5 77.5,82.5 77.5,81.5C 78.791,81.7373 79.791,81.404 80.5,80.5C 80.8333,79.8333 81.1667,79.1667 81.5,78.5 Z"/></g>
<g><path style="opacity:1" fill="#da242c" d="M 128.5,80.5 C 128.5,81.5 128.5,82.5 128.5,83.5C 127.85,83.8039 127.183,84.1373 126.5,84.5C 125.534,82.604 125.201,80.604 125.5,78.5C 125.5,78.1667 125.5,77.8333 125.5,77.5C 126.458,77.0472 127.292,76.3805 128,75.5C 128.494,77.1341 128.66,78.8008 128.5,80.5 Z"/></g>
<g><path style="opacity:0.024" fill="#f09897" d="M 129.5,76.5 C 129.833,76.5 130.167,76.5 130.5,76.5C 130.829,79.2282 130.163,81.5615 128.5,83.5C 128.5,82.5 128.5,81.5 128.5,80.5C 129.434,79.4324 129.768,78.099 129.5,76.5 Z"/></g>
<g><path style="opacity:1" fill="#31344c" d="M 73.5,78.5 C 73.5,79.1667 73.8333,79.5 74.5,79.5C 75.791,79.2627 76.791,79.596 77.5,80.5C 75.0872,82.0507 72.4206,82.7174 69.5,82.5C 68.5,82.5 67.5,82.5 66.5,82.5C 66.5,82.1667 66.5,81.8333 66.5,81.5C 68.9798,80.758 71.3131,79.758 73.5,78.5 Z"/></g>
<g><path style="opacity:0.204" fill="#808080" d="M 31.5,78.5 C 33.898,79.8823 34.0647,81.549 32,83.5C 30.2116,81.9769 30.0449,80.3102 31.5,78.5 Z"/></g>
<g><path style="opacity:0.765" fill="#656666" d="M 42.5,78.5 C 44.0026,81.4894 46.0026,84.1561 48.5,86.5C 48.5,86.8333 48.5,87.1667 48.5,87.5C 46.7839,87.3713 45.1172,87.038 43.5,86.5C 42.6923,84.7798 41.6923,83.1131 40.5,81.5C 42.0481,81.1788 42.7148,80.1788 42.5,78.5 Z"/></g>
<g><path style="opacity:1" fill="#625242" d="M 56.5,79.5 C 57.5,79.5 58.5,79.5 59.5,79.5C 60.6597,80.6114 61.993,81.6114 63.5,82.5C 62.6086,83.5896 61.6086,83.5896 60.5,82.5C 59.452,83.548 58.452,84.548 57.5,85.5C 56.1667,85.5 54.8333,85.5 53.5,85.5C 53.5,85.1667 53.5,84.8333 53.5,84.5C 57.5129,84.4804 58.1795,83.147 55.5,80.5C 55.6236,79.8933 55.9569,79.56 56.5,79.5 Z"/></g>
<g><path style="opacity:0.675" fill="#40362f" d="M 53.5,78.5 C 54.791,78.2627 55.791,78.596 56.5,79.5C 55.9569,79.56 55.6236,79.8933 55.5,80.5C 58.1795,83.147 57.5129,84.4804 53.5,84.5C 52.791,83.596 51.791,83.2627 50.5,83.5C 50.7373,84.791 50.404,85.791 49.5,86.5C 49.1667,86.5 48.8333,86.5 48.5,86.5C 48.163,82.4949 49.8297,79.8282 53.5,78.5 Z"/></g>
<g><path style="opacity:1" fill="#403932" d="M 59.5,77.5 C 60.4584,77.9528 61.2917,78.6195 62,79.5C 62.7083,78.6195 63.5416,77.9528 64.5,77.5C 64.5,78.1667 64.5,78.8333 64.5,79.5C 64.5,80.8333 65.1667,81.5 66.5,81.5C 66.5,81.8333 66.5,82.1667 66.5,82.5C 66.6107,83.1174 66.944,83.6174 67.5,84C 66.252,85.3997 65.252,86.8997 64.5,88.5C 61.1667,88.5 57.8333,88.5 54.5,88.5C 54.1667,87.8333 53.8333,87.1667 53.5,86.5C 56.969,87.7 60.3023,87.7 63.5,86.5C 63.5,85.8333 63.1667,85.5 62.5,85.5C 60.8333,85.5 59.1667,85.5 57.5,85.5C 58.452,84.548 59.452,83.548 60.5,82.5C 61.6086,83.5896 62.6086,83.5896 63.5,82.5C 61.993,81.6114 60.6597,80.6114 59.5,79.5C 59.5,78.8333 59.5,78.1667 59.5,77.5 Z"/></g>
<g><path style="opacity:1" fill="#d95653" d="M 14.5,74.5 C 15.7413,79.8758 17.4079,85.2091 19.5,90.5C 17.9256,90.0629 16.7589,89.0629 16,87.5C 15.51,88.7932 15.3433,90.1266 15.5,91.5C 14.6618,91.1583 14.3284,90.4916 14.5,89.5C 14.7709,87.6203 14.1042,86.287 12.5,85.5C 11.962,83.8828 11.6287,82.2161 11.5,80.5C 12.7899,81.0577 13.6232,82.0577 14,83.5C 14.498,80.5184 14.6646,77.5184 14.5,74.5 Z"/></g>
<g><path style="opacity:0.82" fill="#3d4139" d="M 77.5,80.5 C 78.5,80.5 79.5,80.5 80.5,80.5C 79.791,81.404 78.791,81.7373 77.5,81.5C 77.5,82.5 77.5,83.5 77.5,84.5C 78.9187,85.4511 80.5853,85.7845 82.5,85.5C 82.5,85.8333 82.5,86.1667 82.5,86.5C 80.8333,86.5 79.1667,86.5 77.5,86.5C 76.8333,86.5 76.1667,86.5 75.5,86.5C 74.8333,86.5 74.1667,86.5 73.5,86.5C 72.4107,84.8829 70.744,84.0496 68.5,84C 69.056,83.6174 69.3893,83.1174 69.5,82.5C 72.4206,82.7174 75.0872,82.0507 77.5,80.5 Z"/></g>
<g><path style="opacity:0.98" fill="#35281d" d="M 85.5,78.5 C 86.1667,78.5 86.8333,78.5 87.5,78.5C 87.5,78.8333 87.5,79.1667 87.5,79.5C 87.3713,81.2161 87.038,82.8828 86.5,84.5C 85.0413,84.4326 83.7079,84.7659 82.5,85.5C 80.5853,85.7845 78.9187,85.4511 77.5,84.5C 79.7659,84.8588 81.5993,84.1922 83,82.5C 83.3333,82.8333 83.6667,83.1667 84,83.5C 84.6077,81.8455 85.1077,80.1789 85.5,78.5 Z"/></g>
<g><path style="opacity:0.855" fill="#525252" d="M 106.5,81.5 C 107.5,81.5 108.5,81.5 109.5,81.5C 109.752,84.9318 108.419,85.9318 105.5,84.5C 106.127,83.5832 106.461,82.5832 106.5,81.5 Z"/></g>
<g><path style="opacity:0.204" fill="#d7d7d7" d="M 36.5,86.5 C 35.209,86.2627 34.209,86.596 33.5,87.5C 32.2486,86.528 32.582,85.8614 34.5,85.5C 35.4164,85.5427 36.0831,85.8761 36.5,86.5 Z"/></g>
<g><path style="opacity:0.898" fill="#4b4d3d" d="M 66.5,82.5 C 67.5,82.5 68.5,82.5 69.5,82.5C 69.3893,83.1174 69.056,83.6174 68.5,84C 70.744,84.0496 72.4107,84.8829 73.5,86.5C 71.283,87.3686 68.9496,87.702 66.5,87.5C 65.8333,87.5 65.5,87.8333 65.5,88.5C 65.1667,88.5 64.8333,88.5 64.5,88.5C 65.252,86.8997 66.252,85.3997 67.5,84C 66.944,83.6174 66.6107,83.1174 66.5,82.5 Z"/></g>
<g><path style="opacity:0.596" fill="#916f6f" d="M 87.5,86.5 C 85.8333,86.5 84.1667,86.5 82.5,86.5C 82.5,86.1667 82.5,85.8333 82.5,85.5C 83.7079,84.7659 85.0413,84.4326 86.5,84.5C 89.8388,83.5105 90.1721,84.1771 87.5,86.5 Z"/></g>
<g><path style="opacity:0.533" fill="#6c5c5e" d="M 87.5,79.5 C 88.5832,79.5394 89.5832,79.8728 90.5,80.5C 91.7928,82.6365 91.7928,84.6365 90.5,86.5C 89.5,86.5 88.5,86.5 87.5,86.5C 90.1721,84.1771 89.8388,83.5105 86.5,84.5C 87.038,82.8828 87.3713,81.2161 87.5,79.5 Z"/></g>
<g><path style="opacity:0.7" fill="#6f6f6f" d="M 97.5,80.5 C 98.404,81.209 98.7373,82.209 98.5,83.5C 97.3183,87.0206 95.3183,90.0206 92.5,92.5C 92.7148,90.8212 92.0481,89.8212 90.5,89.5C 93.2154,86.7861 95.5488,83.7861 97.5,80.5 Z"/></g>
<g><path style="opacity:0.992" fill="#d15453" d="M 125.5,78.5 C 125.201,80.604 125.534,82.604 126.5,84.5C 127.183,84.1373 127.85,83.8039 128.5,83.5C 128.5,84.5 128.5,85.5 128.5,86.5C 126.952,86.8212 126.285,87.8212 126.5,89.5C 126.065,92.1573 125.065,94.4907 123.5,96.5C 123.5,95.1667 123.5,93.8333 123.5,92.5C 125.916,90.2949 125.916,88.2949 123.5,86.5C 123.963,83.6697 124.629,81.003 125.5,78.5 Z"/></g>
<g><path style="opacity:0.776" fill="#4b4b4b" d="M 36.5,86.5 C 37.8526,87.8671 37.5193,88.8671 35.5,89.5C 34.4777,89.1445 33.811,88.4778 33.5,87.5C 34.209,86.596 35.209,86.2627 36.5,86.5 Z"/></g>
<g><path style="opacity:0.451" fill="#9f8f8c" d="M 53.5,84.5 C 53.5,84.8333 53.5,85.1667 53.5,85.5C 53.5,85.8333 53.5,86.1667 53.5,86.5C 53.8333,87.1667 54.1667,87.8333 54.5,88.5C 52.8828,87.962 51.2161,87.6287 49.5,87.5C 49.5,87.1667 49.5,86.8333 49.5,86.5C 50.404,85.791 50.7373,84.791 50.5,83.5C 51.791,83.2627 52.791,83.596 53.5,84.5 Z"/></g>
<g><path style="opacity:0.586" fill="#7f6062" d="M 53.5,86.5 C 53.5,86.1667 53.5,85.8333 53.5,85.5C 54.8333,85.5 56.1667,85.5 57.5,85.5C 59.1667,85.5 60.8333,85.5 62.5,85.5C 63.1667,85.5 63.5,85.8333 63.5,86.5C 60.3023,87.7 56.969,87.7 53.5,86.5 Z"/></g>
<g><path style="opacity:0.498" fill="#998586" d="M 77.5,86.5 C 79.1667,86.5 80.8333,86.5 82.5,86.5C 84.1667,86.5 85.8333,86.5 87.5,86.5C 88.5,86.5 89.5,86.5 90.5,86.5C 87.3141,88.8743 83.6474,89.8743 79.5,89.5C 80.9516,88.6981 82.6183,88.1981 84.5,88C 81.9644,87.8138 79.631,87.3138 77.5,86.5 Z"/></g>
<g><path style="opacity:0.09" fill="#fdbbba" d="M 12.5,85.5 C 14.1042,86.287 14.7709,87.6203 14.5,89.5C 13.3263,88.4863 12.6596,87.153 12.5,85.5 Z"/></g>
<g><path style="opacity:0.961" fill="#858584" d="M 43.5,86.5 C 45.1172,87.038 46.7839,87.3713 48.5,87.5C 48.8333,87.5 49.1667,87.5 49.5,87.5C 49.5,87.8333 49.5,88.1667 49.5,88.5C 48.7611,88.369 48.0944,88.5357 47.5,89C 48.305,90.1127 48.9717,91.2794 49.5,92.5C 47.215,90.8818 45.215,88.8818 43.5,86.5 Z"/></g>
<g><path style="opacity:0.09" fill="#fcb8bb" d="M 128.5,86.5 C 128.068,87.7095 127.401,88.7095 126.5,89.5C 126.285,87.8212 126.952,86.8212 128.5,86.5 Z"/></g>
<g><path style="opacity:0.043" fill="#ab9e99" d="M 54.5,88.5 C 57.8333,88.5 61.1667,88.5 64.5,88.5C 64.8333,89.1667 65.1667,89.8333 65.5,90.5C 61.688,89.9736 58.0213,89.3069 54.5,88.5 Z"/></g>
<g><path style="opacity:0.82" fill="#7c7c7c" d="M 103.5,87.5 C 106.063,88.9979 106.063,90.6646 103.5,92.5C 102.334,90.8327 102.334,89.166 103.5,87.5 Z"/></g>
<g><path style="opacity:0.965" fill="#d8232d" d="M 123.5,86.5 C 125.916,88.2949 125.916,90.2949 123.5,92.5C 123.046,90.7411 123.046,88.7411 123.5,86.5 Z"/></g>
<g><path style="opacity:0.651" fill="#3c3234" d="M 75.5,86.5 C 76.1667,86.5 76.8333,86.5 77.5,86.5C 79.631,87.3138 81.9644,87.8138 84.5,88C 82.6183,88.1981 80.9516,88.6981 79.5,89.5C 79.1667,89.5 78.8333,89.5 78.5,89.5C 76.6621,88.3217 74.9955,88.655 73.5,90.5C 72.1667,89.8333 72.1667,89.1667 73.5,88.5C 74.1667,88.5 74.5,88.1667 74.5,87.5C 75.1667,87.5 75.5,87.1667 75.5,86.5 Z"/></g>
<g><path style="opacity:0.071" fill="#c8c7c9" d="M 78.5,89.5 C 76.7162,89.8925 75.0495,90.5592 73.5,91.5C 73.5,91.1667 73.5,90.8333 73.5,90.5C 74.9955,88.655 76.6621,88.3217 78.5,89.5 Z"/></g>
<g><path style="opacity:0.614" fill="#4d4e4d" d="M 49.5,88.5 C 50.8333,89.1667 51.8333,90.1667 52.5,91.5C 52.5569,92.609 52.8902,93.609 53.5,94.5C 51.9382,94.2671 50.6049,93.6005 49.5,92.5C 48.9717,91.2794 48.305,90.1127 47.5,89C 48.0944,88.5357 48.7611,88.369 49.5,88.5 Z"/></g>
<g><path style="opacity:0.349" fill="#6c6061" d="M 73.5,86.5 C 74.1667,86.5 74.8333,86.5 75.5,86.5C 75.5,87.1667 75.1667,87.5 74.5,87.5C 73.8333,87.5 73.5,87.8333 73.5,88.5C 72.1667,89.1667 72.1667,89.8333 73.5,90.5C 73.5,90.8333 73.5,91.1667 73.5,91.5C 70.5481,92.9729 67.8814,92.6395 65.5,90.5C 65.1667,89.8333 64.8333,89.1667 64.5,88.5C 64.8333,88.5 65.1667,88.5 65.5,88.5C 66.1667,88.5 66.5,88.1667 66.5,87.5C 68.9496,87.702 71.283,87.3686 73.5,86.5 Z"/></g>
<g><path style="opacity:1" fill="#dc3638" d="M 19.5,90.5 C 20.6005,91.6049 21.2671,92.9382 21.5,94.5C 21.762,95.9778 21.4287,97.3112 20.5,98.5C 19.7348,97.3881 18.7348,96.7214 17.5,96.5C 16.0687,95.2196 15.4021,93.5529 15.5,91.5C 15.3433,90.1266 15.51,88.7932 16,87.5C 16.7589,89.0629 17.9256,90.0629 19.5,90.5 Z"/></g>
<g><path style="opacity:0.475" fill="#585b5a" d="M 90.5,89.5 C 92.0481,89.8212 92.7148,90.8212 92.5,92.5C 90.8333,93.1667 89.1667,93.8333 87.5,94.5C 89.0311,93.0755 88.6977,92.4088 86.5,92.5C 87.795,91.5116 89.1283,90.5116 90.5,89.5 Z"/></g>
<g><path style="opacity:1" fill="#d9423e" d="M 123.5,86.5 C 123.046,88.7411 123.046,90.7411 123.5,92.5C 123.5,93.8333 123.5,95.1667 123.5,96.5C 122.5,96.5 121.5,96.5 120.5,96.5C 120.629,94.7839 120.962,93.1172 121.5,91.5C 121.402,89.4471 122.069,87.7804 123.5,86.5 Z"/></g>
<g><path style="opacity:0.663" fill="#808080" d="M 36.5,91.5 C 37.8734,91.3433 39.2068,91.51 40.5,92C 41.8333,94.3333 41.1667,95.3333 38.5,95C 37.1772,94.1841 36.5106,93.0174 36.5,91.5 Z"/></g>
<g><path style="opacity:0.886" fill="#535553" d="M 86.5,92.5 C 88.6977,92.4088 89.0311,93.0755 87.5,94.5C 86.3406,96.2503 84.674,97.2503 82.5,97.5C 84.0311,96.0755 83.6977,95.4088 81.5,95.5C 82.8993,94.1103 84.5659,93.1103 86.5,92.5 Z"/></g>
<g><path style="opacity:0.133" fill="#9c9c9c" d="M 100.5,96.5 C 99.791,97.404 98.791,97.7373 97.5,97.5C 96.7564,94.0504 98.0897,92.3838 101.5,92.5C 101.768,94.099 101.434,95.4324 100.5,96.5 Z"/></g>
<g><path style="opacity:0.847" fill="#2a2a2a" d="M 100.5,96.5 C 98.0268,96.0527 97.8601,95.0527 100,93.5C 100.483,94.448 100.649,95.448 100.5,96.5 Z"/></g>
<g><path style="opacity:0.776" fill="#343434" d="M 52.5,91.5 C 53.609,91.5569 54.609,91.8902 55.5,92.5C 56.0768,94.6516 57.2435,94.985 59,93.5C 59.4828,94.448 59.6495,95.448 59.5,96.5C 58.5,96.5 57.5,96.5 56.5,96.5C 54.9731,96.573 53.9731,95.9063 53.5,94.5C 52.8902,93.609 52.5569,92.609 52.5,91.5 Z"/></g>
<g><path style="opacity:0.784" fill="#de6561" d="M 121.5,91.5 C 120.962,93.1172 120.629,94.7839 120.5,96.5C 121.5,96.5 122.5,96.5 123.5,96.5C 123.068,97.7095 122.401,98.7095 121.5,99.5C 121.19,97.8564 120.19,96.8564 118.5,96.5C 118.75,94.326 119.75,92.6594 121.5,91.5 Z"/></g>
<g><path style="opacity:0.722" fill="#8f8f90" d="M 63.5,96.5 C 61.8212,96.2852 60.8212,96.9519 60.5,98.5C 58.847,98.3404 57.5137,97.6737 56.5,96.5C 57.5,96.5 58.5,96.5 59.5,96.5C 59.6495,95.448 59.4828,94.448 59,93.5C 57.2435,94.985 56.0768,94.6516 55.5,92.5C 56.1174,92.6107 56.6174,92.944 57,93.5C 59.3508,90.9568 60.5175,91.6235 60.5,95.5C 61.791,95.2627 62.791,95.596 63.5,96.5 Z"/></g>
<g><path style="opacity:0.761" fill="#616363" d="M 81.5,95.5 C 83.6977,95.4088 84.0311,96.0755 82.5,97.5C 80.5168,97.1568 79.1834,97.8235 78.5,99.5C 78.5,103.5 78.5,107.5 78.5,111.5C 77.596,110.791 77.2627,109.791 77.5,108.5C 77.5,107.833 77.5,107.167 77.5,106.5C 77.8016,103.941 77.4682,101.607 76.5,99.5C 76.5,98.8333 76.1667,98.5 75.5,98.5C 72.7131,97.5233 69.7131,97.19 66.5,97.5C 65.5084,97.6716 64.8417,97.3382 64.5,96.5C 70.2031,96.6252 75.8698,96.2919 81.5,95.5 Z"/></g>
<g><path style="opacity:0.898" fill="#7e7c80" d="M 42.5,96.5 C 45.1662,96.0658 46.3329,97.0658 46,99.5C 43.3422,100.694 42.1756,99.694 42.5,96.5 Z"/></g>
<g><path style="opacity:0.488" fill="#313034" d="M 63.5,96.5 C 63.8333,96.5 64.1667,96.5 64.5,96.5C 64.8417,97.3382 65.5084,97.6716 66.5,97.5C 66.5,97.8333 66.5,98.1667 66.5,98.5C 65.209,98.2627 64.209,98.596 63.5,99.5C 62.8333,99.5 62.1667,99.5 61.5,99.5C 61.5,98.8333 61.1667,98.5 60.5,98.5C 60.8212,96.9519 61.8212,96.2852 63.5,96.5 Z"/></g>
<g><path style="opacity:0.788" fill="#272829" d="M 66.5,97.5 C 69.7131,97.19 72.7131,97.5233 75.5,98.5C 75.1667,98.5 74.8333,98.5 74.5,98.5C 72.8007,98.5271 71.4674,99.1938 70.5,100.5C 70.5,99.8333 70.1667,99.5 69.5,99.5C 68.209,99.7373 67.209,99.404 66.5,98.5C 66.5,98.1667 66.5,97.8333 66.5,97.5 Z"/></g>
<g><path style="opacity:0.239" fill="#b1b0af" d="M 93.5,98.5 C 94.209,97.596 95.209,97.2627 96.5,97.5C 96.7373,98.791 96.404,99.791 95.5,100.5C 95.5,99.1667 94.8333,98.5 93.5,98.5 Z"/></g>
<g><path style="opacity:0.941" fill="#db4c48" d="M 118.5,96.5 C 120.19,96.8564 121.19,97.8564 121.5,99.5C 121.068,100.71 120.401,101.71 119.5,102.5C 118.833,101.167 118.167,99.8333 117.5,98.5C 117.328,97.5084 117.662,96.8417 118.5,96.5 Z"/></g>
<g><path style="opacity:0.98" fill="#df635e" d="M 21.5,94.5 C 22.8304,96.4918 24.1637,98.4918 25.5,100.5C 25.5,101.167 25.5,101.833 25.5,102.5C 24.8485,101.909 24.1818,101.243 23.5,100.5C 22.6926,102.578 23.3592,104.245 25.5,105.5C 25.5,105.833 25.5,106.167 25.5,106.5C 21.9145,104.047 19.2478,100.714 17.5,96.5C 18.7348,96.7214 19.7348,97.3881 20.5,98.5C 21.4287,97.3112 21.762,95.9778 21.5,94.5 Z"/></g>
<g><path style="opacity:0.86" fill="#292929" d="M 74.5,98.5 C 74.5,98.8333 74.5,99.1667 74.5,99.5C 74.1667,99.5 73.8333,99.5 73.5,99.5C 72.5655,100.568 72.2322,101.901 72.5,103.5C 72.5,104.167 72.5,104.833 72.5,105.5C 72.5,106.167 72.5,106.833 72.5,107.5C 71.8333,107.5 71.5,107.167 71.5,106.5C 71.3713,104.784 71.038,103.117 70.5,101.5C 70.5,101.167 70.5,100.833 70.5,100.5C 71.4674,99.1938 72.8007,98.5271 74.5,98.5 Z"/></g>
<g><path style="opacity:0.194" fill="#7f7d7d" d="M 74.5,99.5 C 74.5,99.1667 74.5,98.8333 74.5,98.5C 74.8333,98.5 75.1667,98.5 75.5,98.5C 76.1667,98.5 76.5,98.8333 76.5,99.5C 76.5,100.833 76.5,102.167 76.5,103.5C 75.1667,103.5 73.8333,103.5 72.5,103.5C 72.2322,101.901 72.5655,100.568 73.5,99.5C 73.281,100.675 73.6143,101.675 74.5,102.5C 75.7759,101.386 75.7759,100.386 74.5,99.5 Z M 73.5,99.5 C 73.8333,99.5 74.1667,99.5 74.5,99.5C 75.7759,100.386 75.7759,101.386 74.5,102.5C 73.6143,101.675 73.281,100.675 73.5,99.5 Z"/></g>
<g><path style="opacity:0.557" fill="#3a3938" d="M 92.5,98.5 C 92.8333,98.5 93.1667,98.5 93.5,98.5C 94.8333,98.5 95.5,99.1667 95.5,100.5C 93.8212,100.715 92.8212,100.048 92.5,98.5 Z"/></g>
<g><path style="opacity:0.584" fill="#494b4c" d="M 61.5,99.5 C 62.1667,99.5 62.8333,99.5 63.5,99.5C 64.7888,100.637 65.7888,101.97 66.5,103.5C 66.5,103.833 66.5,104.167 66.5,104.5C 65.2617,104.81 65.2617,105.31 66.5,106C 65.9056,106.464 65.2389,106.631 64.5,106.5C 64.5,105.833 64.1667,105.5 63.5,105.5C 63.5,104.833 63.5,104.167 63.5,103.5C 62.1938,102.533 61.5271,101.199 61.5,99.5 Z"/></g>
<g><path style="opacity:0.067" fill="#b1b1b1" d="M 82.5,97.5 C 83.8021,99.0276 85.4687,100.028 87.5,100.5C 86.8333,100.5 86.5,100.833 86.5,101.5C 84.396,101.799 82.396,101.466 80.5,100.5C 81.4563,98.3004 80.7896,97.9671 78.5,99.5C 79.1834,97.8235 80.5168,97.1568 82.5,97.5 Z"/></g>
<g><path style="opacity:0.373" fill="#bebebe" d="M 92.5,98.5 C 92.8212,100.048 93.8212,100.715 95.5,100.5C 94.9976,102.085 93.9976,102.585 92.5,102C 91.2089,100.708 91.2089,99.5417 92.5,98.5 Z"/></g>
<g><path style="opacity:0.494" fill="#7f7f7f" d="M 47.5,100.5 C 53.969,101.948 53.969,102.948 47.5,103.5C 47.5,102.5 47.5,101.5 47.5,100.5 Z"/></g>
<g><path style="opacity:0.588" fill="#747476" d="M 66.5,98.5 C 67.209,99.404 68.209,99.7373 69.5,99.5C 69.3284,100.492 69.6618,101.158 70.5,101.5C 71.038,103.117 71.3713,104.784 71.5,106.5C 70.8333,106.5 70.5,106.833 70.5,107.5C 70.1667,107.5 69.8333,107.5 69.5,107.5C 69.573,105.973 68.9063,104.973 67.5,104.5C 67.5,103.833 67.1667,103.5 66.5,103.5C 65.7888,101.97 64.7888,100.637 63.5,99.5C 64.209,98.596 65.209,98.2627 66.5,98.5 Z"/></g>
<g><path style="opacity:0.961" fill="#db4e4a" d="M 117.5,98.5 C 118.167,99.8333 118.833,101.167 119.5,102.5C 118.527,105.135 116.86,107.135 114.5,108.5C 113.5,108.5 112.5,108.5 111.5,108.5C 111.5,107.5 111.5,106.5 111.5,105.5C 112.8,102.568 114.8,100.234 117.5,98.5 Z"/></g>
<g><path style="opacity:0.992" fill="#d72428" d="M 25.5,102.5 C 26.4013,103.29 27.0679,104.29 27.5,105.5C 26.8333,105.5 26.1667,105.5 25.5,105.5C 23.3592,104.245 22.6926,102.578 23.5,100.5C 24.1818,101.243 24.8485,101.909 25.5,102.5 Z"/></g>
<g><path style="opacity:0.714" fill="#df7a75" d="M 25.5,100.5 C 27.4707,102.808 29.4707,105.142 31.5,107.5C 29.9382,107.267 28.6049,106.6 27.5,105.5C 27.0679,104.29 26.4013,103.29 25.5,102.5C 25.5,101.833 25.5,101.167 25.5,100.5 Z"/></g>
<g><path style="opacity:0.463" fill="#acacac" d="M 57.5,106.5 C 57.1575,104.775 56.1575,104.275 54.5,105C 55.056,105.383 55.3893,105.883 55.5,106.5C 52.9586,105.377 52.9586,104.044 55.5,102.5C 58.038,103.257 58.7047,104.59 57.5,106.5 Z"/></g>
<g><path style="opacity:0.031" fill="#d3d3d3" d="M 88.5,101.5 C 91.1667,102.5 91.1667,103.5 88.5,104.5C 89.8333,103.5 89.8333,102.5 88.5,101.5 Z"/></g>
<g><path style="opacity:0.539" fill="#262425" d="M 76.5,99.5 C 77.4682,101.607 77.8016,103.941 77.5,106.5C 75.9582,105.699 74.2915,105.366 72.5,105.5C 72.5,104.833 72.5,104.167 72.5,103.5C 73.8333,103.5 75.1667,103.5 76.5,103.5C 76.5,102.167 76.5,100.833 76.5,99.5 Z"/></g>
<g><path style="opacity:0.4" fill="#585555" d="M 87.5,100.5 C 87.5,101.167 87.8333,101.5 88.5,101.5C 89.8333,102.5 89.8333,103.5 88.5,104.5C 88.5,109.5 88.5,114.5 88.5,119.5C 88.5,119.833 88.5,120.167 88.5,120.5C 87.8333,120.5 87.1667,120.5 86.5,120.5C 87.6978,114.218 87.6978,107.885 86.5,101.5C 86.5,100.833 86.8333,100.5 87.5,100.5 Z"/></g>
<g><path style="opacity:1" fill="#d94948" d="M 25.5,105.5 C 26.1667,105.5 26.8333,105.5 27.5,105.5C 28.6049,106.6 29.9382,107.267 31.5,107.5C 32.8333,107.5 33.5,108.167 33.5,109.5C 32.4168,109.461 31.4168,109.127 30.5,108.5C 29.6143,109.325 29.281,110.325 29.5,111.5C 27.4131,110.415 26.0798,108.749 25.5,106.5C 25.5,106.167 25.5,105.833 25.5,105.5 Z"/></g>
<g><path style="opacity:0.604" fill="#373737" d="M 57.5,106.5 C 56.8333,106.5 56.1667,106.5 55.5,106.5C 55.3893,105.883 55.056,105.383 54.5,105C 56.1575,104.275 57.1575,104.775 57.5,106.5 Z"/></g>
<g><path style="opacity:0.235" fill="#9e9f9f" d="M 60.5,98.5 C 61.1667,98.5 61.5,98.8333 61.5,99.5C 61.5271,101.199 62.1938,102.533 63.5,103.5C 62.6618,103.842 62.3284,104.508 62.5,105.5C 61.8333,106.5 61.1667,107.5 60.5,108.5C 60.5,107.833 60.1667,107.5 59.5,107.5C 59.7038,104.482 60.0371,101.482 60.5,98.5 Z"/></g>
<g><path style="opacity:0.746" fill="#514f4f" d="M 72.5,105.5 C 74.2915,105.366 75.9582,105.699 77.5,106.5C 77.5,107.167 77.5,107.833 77.5,108.5C 76.8333,108.5 76.5,108.833 76.5,109.5C 75.5,109.5 74.5,109.5 73.5,109.5C 76.2583,108.033 75.925,107.367 72.5,107.5C 72.5,106.833 72.5,106.167 72.5,105.5 Z"/></g>
<g><path style="opacity:0.67" fill="#282828" d="M 71.5,106.5 C 71.5,107.167 71.8333,107.5 72.5,107.5C 75.925,107.367 76.2583,108.033 73.5,109.5C 72.7281,110.694 71.7281,111.694 70.5,112.5C 71.8333,110.833 71.8333,109.167 70.5,107.5C 70.5,106.833 70.8333,106.5 71.5,106.5 Z"/></g>
<g><path style="opacity:0.965" fill="#e5736e" d="M 111.5,105.5 C 111.5,106.5 111.5,107.5 111.5,108.5C 112.5,108.5 113.5,108.5 114.5,108.5C 113.833,109.833 112.833,110.833 111.5,111.5C 111.306,109.088 109.973,108.088 107.5,108.5C 108.795,107.512 110.128,106.512 111.5,105.5 Z"/></g>
<g><path style="opacity:0.976" fill="#d6252d" d="M 33.5,109.5 C 33.8333,109.5 34.1667,109.5 34.5,109.5C 34.9678,112.966 36.9678,114.632 40.5,114.5C 40.8333,114.5 41.1667,114.5 41.5,114.5C 41.5394,115.583 41.8728,116.583 42.5,117.5C 42,117.833 41.5,118.167 41,118.5C 38.8526,116.522 36.3526,115.189 33.5,114.5C 32.9653,112.554 31.632,111.554 29.5,111.5C 29.281,110.325 29.6143,109.325 30.5,108.5C 31.4168,109.127 32.4168,109.461 33.5,109.5 Z"/></g>
<g><path style="opacity:0.01" fill="#e2e2e2" d="M 66.5,104.5 C 66.8333,104.5 67.1667,104.5 67.5,104.5C 67.2155,106.415 67.5489,108.081 68.5,109.5C 67.8333,110.167 67.1667,110.833 66.5,111.5C 65.5,111.5 64.5,111.5 63.5,111.5C 63.5,110.833 63.8333,110.5 64.5,110.5C 65.8333,109.5 65.8333,108.5 64.5,107.5C 64.5,107.167 64.5,106.833 64.5,106.5C 65.2389,106.631 65.9056,106.464 66.5,106C 65.2617,105.31 65.2617,104.81 66.5,104.5 Z"/></g>
<g><path style="opacity:0.991" fill="#e2615d" d="M 107.5,108.5 C 109.973,108.088 111.306,109.088 111.5,111.5C 111.167,112.5 110.5,113.167 109.5,113.5C 109.5,112.5 109.5,111.5 109.5,110.5C 107.315,110.704 105.315,111.37 103.5,112.5C 104.527,110.806 105.861,109.473 107.5,108.5 Z"/></g>
<g><path style="opacity:0.875" fill="#464547" d="M 77.5,108.5 C 77.2627,109.791 77.596,110.791 78.5,111.5C 79.404,112.209 79.7373,113.209 79.5,114.5C 77.5,113.833 75.5,113.167 73.5,112.5C 74.9002,111.9 75.9002,110.9 76.5,109.5C 76.5,108.833 76.8333,108.5 77.5,108.5 Z"/></g>
<g><path style="opacity:0.839" fill="#e77972" d="M 29.5,111.5 C 31.632,111.554 32.9653,112.554 33.5,114.5C 31.5956,114.262 30.2623,113.262 29.5,111.5 Z"/></g>
<g><path style="opacity:0.584" fill="#e06d6b" d="M 34.5,109.5 C 36.5398,111.177 38.5398,112.844 40.5,114.5C 36.9678,114.632 34.9678,112.966 34.5,109.5 Z"/></g>
<g><path style="opacity:0.769" fill="#252726" d="M 73.5,109.5 C 74.5,109.5 75.5,109.5 76.5,109.5C 75.9002,110.9 74.9002,111.9 73.5,112.5C 73.8333,113.167 74.1667,113.833 74.5,114.5C 73.5987,115.29 72.9321,116.29 72.5,117.5C 71.7784,117.918 71.2784,118.584 71,119.5C 70.5357,118.906 70.369,118.239 70.5,117.5C 70.5,117.167 70.5,116.833 70.5,116.5C 70.0472,115.542 69.3805,114.708 68.5,114C 69.4158,113.722 70.0825,113.222 70.5,112.5C 71.7281,111.694 72.7281,110.694 73.5,109.5 Z"/></g>
<g><path style="opacity:0.525" fill="#373430" d="M 73.5,112.5 C 75.5,113.167 77.5,113.833 79.5,114.5C 80.3382,114.842 80.6716,115.508 80.5,116.5C 80.5,117.5 80.5,118.5 80.5,119.5C 79.1667,119.5 77.8333,119.5 76.5,119.5C 76.8799,117.302 76.2132,115.635 74.5,114.5C 74.1667,113.833 73.8333,113.167 73.5,112.5 Z"/></g>
<g><path style="opacity:0.996" fill="#d6242d" d="M 109.5,113.5 C 107.265,113.795 105.265,113.461 103.5,112.5C 105.315,111.37 107.315,110.704 109.5,110.5C 109.5,111.5 109.5,112.5 109.5,113.5 Z"/></g>
<g><path style="opacity:0.082" fill="#b7b9b9" d="M 62.5,105.5 C 62.8333,105.5 63.1667,105.5 63.5,105.5C 64.1667,105.5 64.5,105.833 64.5,106.5C 64.5,106.833 64.5,107.167 64.5,107.5C 64.5,108.5 64.5,109.5 64.5,110.5C 63.8333,110.5 63.5,110.833 63.5,111.5C 64.209,112.404 65.209,112.737 66.5,112.5C 65.9094,113.151 65.2427,113.818 64.5,114.5C 65.6016,115.176 66.6016,115.842 67.5,116.5C 65.5759,116.711 65.2426,117.377 66.5,118.5C 66.0825,119.222 65.4158,119.722 64.5,120C 65.0944,120.464 65.7611,120.631 66.5,120.5C 65.791,121.404 64.791,121.737 63.5,121.5C 63.6633,119.143 63.4966,116.81 63,114.5C 62.6174,115.056 62.1174,115.389 61.5,115.5C 61.5,114.5 61.5,113.5 61.5,112.5C 63.3751,110.406 63.7084,108.072 62.5,105.5 Z"/></g>
<g><path style="opacity:0.106" fill="#5e5f61" d="M 69.5,107.5 C 69.8333,107.5 70.1667,107.5 70.5,107.5C 71.8333,109.167 71.8333,110.833 70.5,112.5C 70.0825,113.222 69.4158,113.722 68.5,114C 69.3805,114.708 70.0472,115.542 70.5,116.5C 70.1667,116.5 69.8333,116.5 69.5,116.5C 68.8333,116.5 68.1667,116.5 67.5,116.5C 66.6016,115.842 65.6016,115.176 64.5,114.5C 65.2427,113.818 65.9094,113.151 66.5,112.5C 66.5,112.167 66.5,111.833 66.5,111.5C 67.1667,110.833 67.8333,110.167 68.5,109.5C 68.3284,108.508 68.6618,107.842 69.5,107.5 Z"/></g>
<g><path style="opacity:0.969" fill="#e46f6b" d="M 103.5,112.5 C 105.265,113.461 107.265,113.795 109.5,113.5C 108.101,114.89 106.434,115.89 104.5,116.5C 103.817,114.824 102.483,114.157 100.5,114.5C 100.973,113.094 101.973,112.427 103.5,112.5 Z"/></g>
<g><path style="opacity:0.961" fill="#d83635" d="M 100.5,114.5 C 102.483,114.157 103.817,114.824 104.5,116.5C 104.167,117.5 103.5,118.167 102.5,118.5C 98.1547,118.702 97.488,117.369 100.5,114.5 Z"/></g>
<g><path style="opacity:0.427" fill="#636261" d="M 59.5,107.5 C 60.1667,107.5 60.5,107.833 60.5,108.5C 60.2322,110.099 60.5655,111.432 61.5,112.5C 61.5,113.5 61.5,114.5 61.5,115.5C 61.7852,117.288 61.4519,118.955 60.5,120.5C 59.5078,116.217 59.1744,111.884 59.5,107.5 Z"/></g>
<g><path style="opacity:0.992" fill="#de5b5a" d="M 33.5,114.5 C 36.3526,115.189 38.8526,116.522 41,118.5C 41.5,118.167 42,117.833 42.5,117.5C 41.8728,116.583 41.5394,115.583 41.5,114.5C 43.5368,115.846 45.5368,117.18 47.5,118.5C 45.847,118.66 44.5137,119.326 43.5,120.5C 39.3948,119.717 36.0615,117.717 33.5,114.5 Z"/></g>
<g><path style="opacity:0.992" fill="#d85f59" d="M 100.5,114.5 C 97.488,117.369 98.1547,118.702 102.5,118.5C 100.972,119.309 99.3057,119.976 97.5,120.5C 96.8166,118.824 95.4832,118.157 93.5,118.5C 95.6626,116.917 97.9959,115.584 100.5,114.5 Z"/></g>
<g><path style="opacity:0.243" fill="#8e7d7e" d="M 67.5,116.5 C 68.1667,116.5 68.8333,116.5 69.5,116.5C 69.5,117.167 69.8333,117.5 70.5,117.5C 70.369,118.239 70.5357,118.906 71,119.5C 71.2784,118.584 71.7784,117.918 72.5,117.5C 72.8039,118.15 73.1373,118.817 73.5,119.5C 71.2573,120.474 68.924,120.808 66.5,120.5C 65.7611,120.631 65.0944,120.464 64.5,120C 65.4158,119.722 66.0825,119.222 66.5,118.5C 67.3382,118.158 67.6716,117.492 67.5,116.5 Z"/></g>
<g><path style="opacity:0.196" fill="#a59f9f" d="M 80.5,116.5 C 81.4345,117.568 81.7678,118.901 81.5,120.5C 79.5853,120.784 77.9187,120.451 76.5,119.5C 77.8333,119.5 79.1667,119.5 80.5,119.5C 80.5,118.5 80.5,117.5 80.5,116.5 Z"/></g>
<g><path style="opacity:0.994" fill="#dc5b54" d="M 93.5,118.5 C 95.4832,118.157 96.8166,118.824 97.5,120.5C 96.713,122.104 95.3797,122.771 93.5,122.5C 92.4479,120.744 90.7812,120.077 88.5,120.5C 88.5,120.167 88.5,119.833 88.5,119.5C 90.0418,118.699 91.7085,118.366 93.5,118.5 Z"/></g>
<g><path style="opacity:0.988" fill="#d44742" d="M 47.5,118.5 C 49.2915,118.366 50.9582,118.699 52.5,119.5C 50.5439,120.478 48.5439,121.478 46.5,122.5C 46.0269,121.094 45.0269,120.427 43.5,120.5C 44.5137,119.326 45.847,118.66 47.5,118.5 Z"/></g>
<g><path style="opacity:1" fill="#df5f5c" d="M 52.5,119.5 C 55.0177,120.264 57.351,121.264 59.5,122.5C 56.9339,122.656 54.4339,122.322 52,121.5C 50.3167,122.176 50.1501,123.176 51.5,124.5C 49.597,124.204 47.9303,123.537 46.5,122.5C 48.5439,121.478 50.5439,120.478 52.5,119.5 Z"/></g>
<g><path style="opacity:0.071" fill="#f4aaa8" d="M 43.5,120.5 C 45.0269,120.427 46.0269,121.094 46.5,122.5C 44.9731,122.573 43.9731,121.906 43.5,120.5 Z"/></g>
<g><path style="opacity:1" fill="#d63637" d="M 86.5,120.5 C 87.1667,120.5 87.8333,120.5 88.5,120.5C 90.7812,120.077 92.4479,120.744 93.5,122.5C 91.4352,122.517 89.4352,122.85 87.5,123.5C 85.7354,122.539 83.7354,122.205 81.5,122.5C 82.9303,121.463 84.597,120.796 86.5,120.5 Z"/></g>
<g><path style="opacity:0.963" fill="#d63638" d="M 59.5,122.5 C 59.5,122.833 59.5,123.167 59.5,123.5C 60.1667,124.167 60.8333,124.833 61.5,125.5C 60.1667,125.5 58.8333,125.5 57.5,125.5C 55.3792,125.675 53.3792,125.341 51.5,124.5C 50.1501,123.176 50.3167,122.176 52,121.5C 54.4339,122.322 56.9339,122.656 59.5,122.5 Z"/></g>
<g><path style="opacity:0.553" fill="#cd6b64" d="M 59.5,123.5 C 59.5,123.167 59.5,122.833 59.5,122.5C 66.8333,122.5 74.1667,122.5 81.5,122.5C 79.9724,123.309 78.3057,123.976 76.5,124.5C 70.7876,124.687 65.1209,124.354 59.5,123.5 Z"/></g>
<g><path style="opacity:0.988" fill="#d32426" d="M 81.5,122.5 C 83.7354,122.205 85.7354,122.539 87.5,123.5C 83.8993,124.463 80.2326,125.13 76.5,125.5C 76.5,125.167 76.5,124.833 76.5,124.5C 78.3057,123.976 79.9724,123.309 81.5,122.5 Z"/></g>
<g><path style="opacity:0.898" fill="#da5e5a" d="M 93.5,122.5 C 90.5784,124.531 87.2451,125.698 83.5,126C 74.6567,126.824 65.9901,126.657 57.5,125.5C 58.8333,125.5 60.1667,125.5 61.5,125.5C 66.5,125.5 71.5,125.5 76.5,125.5C 80.2326,125.13 83.8993,124.463 87.5,123.5C 89.4352,122.85 91.4352,122.517 93.5,122.5 Z"/></g>
<g><path style="opacity:1" fill="#d0262b" d="M 59.5,123.5 C 65.1209,124.354 70.7876,124.687 76.5,124.5C 76.5,124.833 76.5,125.167 76.5,125.5C 71.5,125.5 66.5,125.5 61.5,125.5C 60.8333,124.833 60.1667,124.167 59.5,123.5 Z"/></g>
</svg>
